<?xml version="1.0" standalone="no"?>
<!DOCTYPE svg PUBLIC "-//W3C//DTD SVG 1.1//EN" "http://www.w3.org/Graphics/SVG/1.1/DTD/svg11.dtd" >
<svg>
<metadata>
Created by FontForge 20120731 at Thu Aug  4 02:59:42 2016
 By www
Copyright (c) 2011 by Jos Buivenga. All rights reserved.
</metadata>
<defs>
<font id="MuseoSansW01-Rounded500" horiz-adv-x="613" >
  <font-face 
    font-family="MuseoSansW01-Rounded500"
    font-weight="400"
    font-stretch="normal"
    units-per-em="1000"
    panose-1="2 0 0 0 0 0 0 0 0 0"
    ascent="751"
    descent="-249"
    x-height="506"
    cap-height="706"
    bbox="-62 -214 1068 892"
    underline-thickness="50"
    underline-position="-100"
    unicode-range="U+000D-2122"
  />
<missing-glyph horiz-adv-x="0" 
 />
    <glyph glyph-name=".notdef" horiz-adv-x="0" 
 />
    <glyph glyph-name=".null" horiz-adv-x="0" 
 />
    <glyph glyph-name="uni000D" unicode="&#xd;" horiz-adv-x="0" 
 />
    <glyph glyph-name="space" unicode=" " horiz-adv-x="250" 
 />
    <glyph glyph-name="exclam" unicode="!" horiz-adv-x="259" 
d="M80 65q0 33 33 33h34q33 0 33 -33v-32q0 -33 -33 -33h-34q-33 0 -33 33v32zM118 194q-33 0 -33 33l-5 446q0 33 32 33h34q33 0 33 -33l-5 -446q-2 -33 -34 -33h-22z" />
    <glyph glyph-name="quotedbl" unicode="&#x22;" horiz-adv-x="329" 
d="M89 506q-33 0 -33 33v146q0 33 33 33h10q33 0 33 -33v-146q0 -33 -33 -33h-10zM230 506q-33 0 -33 33v146q0 33 33 33h10q33 0 33 -33v-146q0 -33 -33 -33h-10z" />
    <glyph glyph-name="numbersign" unicode="#" horiz-adv-x="702" 
d="M414 265l30 168h-156l-29 -168h155zM165 191h-94q-36 0 -31 35l2 9q4 30 36 30h100l29 168h-93q-36 0 -31 35l2 9q5 29 35 29h100l29 171q6 29 36 29h15q36 0 30 -35l-29 -165h155l29 171q6 29 37 29h14q36 0 30 -35l-29 -165h94q36 0 31 -35l-2 -9q-5 -29 -35 -29h-100
l-30 -168h93q17 0 25 -9.5t6 -26.5l-2 -8q-5 -30 -36 -30h-99l-27 -161q-6 -30 -37 -30h-14q-36 0 -30 35l27 156h-155l-28 -161q-5 -30 -36 -30h-14q-36 0 -30 35z" />
    <glyph glyph-name="dollar" unicode="$" horiz-adv-x="536" 
d="M62 60q-26 20 -5 46l16 23q18 25 47 6q10 -8 25.5 -17.5t35 -18t43 -14t49.5 -5.5q25 0 47 7t39 20t27 32.5t10 44.5q0 36 -25.5 60.5t-64 44t-83.5 38.5t-83.5 44t-64 61t-25.5 89q0 36 13.5 69t37.5 58.5t58 43t76 23.5v61q0 33 32 33h8q31 0 31 -29v-64q54 -3 91 -20
t57 -31q13 -8 14.5 -19.5t-5.5 -25.5l-13 -25q-16 -28 -46 -9q-19 12 -51.5 26t-75.5 14q-28 0 -51.5 -8t-40.5 -22.5t-26.5 -33t-9.5 -39.5q0 -35 25.5 -58t64 -41.5t83.5 -36.5t83.5 -44t64 -63t25.5 -93q0 -38 -13 -71.5t-37 -59.5t-59 -43.5t-80 -22.5v-59
q0 -33 -31 -33h-8q-32 0 -32 29v63q-32 3 -59.5 11t-49 18.5t-38 21.5t-26.5 19z" />
    <glyph glyph-name="percent" unicode="%" horiz-adv-x="755" 
d="M485 136q0 -32 21 -53t52 -21q32 0 53 21t21 53q0 31 -21 53t-53 22q-31 0 -52 -22t-21 -53zM407 136q0 30 12 57t32 47.5t47.5 32t59.5 11.5q31 0 59 -11.5t48.5 -32t32.5 -47.5t12 -57q0 -31 -12 -58t-32.5 -47t-48.5 -31.5t-59 -11.5q-32 0 -59.5 11.5t-47.5 31.5
t-32 47t-12 58zM196 496q31 0 52.5 21t21.5 53q0 31 -21.5 53t-52.5 22q-32 0 -53 -22t-21 -53q0 -32 21 -53t53 -21zM585 687q15 19 40 19h18q21 0 27 -11.5t-7 -28.5l-494 -646q-8 -11 -17 -15.5t-23 -4.5h-18q-21 0 -27 11.5t7 28.5zM196 422q-32 0 -59.5 11.5t-48 31.5
t-32.5 47t-12 58q0 30 12 57t32.5 47.5t48 32t59.5 11.5q31 0 58.5 -11.5t48.5 -32t33 -47.5t12 -57q0 -31 -12 -58t-33 -47t-48.5 -31.5t-58.5 -11.5z" />
    <glyph glyph-name="ampersand" unicode="&#x26;" horiz-adv-x="644" 
d="M146 203q0 -26 10 -48.5t29 -39t45.5 -26.5t59.5 -10q68 0 107.5 38t39.5 122v90h-135q-75 0 -115.5 -33t-40.5 -93zM45 198q0 29 8.5 57.5t24.5 52.5t39 42.5t53 28.5v2q-27 11 -47 31q-18 17 -32.5 47t-14.5 77q0 44 16.5 78t45.5 57t68.5 35t86.5 12h46q33 0 33 -33
v-18q0 -33 -33 -33h-41q-56 0 -89 -30t-33 -78q0 -17 5 -36t19.5 -36t39.5 -28t66 -11h131v63q0 33 33 33h31q33 0 33 -28v-68h61q33 0 33 -33v-20q0 -33 -33 -33h-61v-94q0 -118 -65 -182.5t-179 -64.5q-55 0 -100 16t-77.5 44.5t-50 66.5t-17.5 83z" />
    <glyph glyph-name="quotesingle" unicode="'" horiz-adv-x="188" 
d="M88 530q-33 0 -33 32v123q0 33 33 33h12q32 0 32 -33v-123q0 -32 -32 -32h-12z" />
    <glyph glyph-name="parenleft" unicode="(" horiz-adv-x="275" 
d="M154 -75q-49 88 -77 194t-28 221q0 102 26.5 195t76.5 178q7 13 16 17.5t23 4.5h15q20 0 26 -10.5t-3 -27.5q-45 -85 -68.5 -174t-23.5 -184q0 -102 23 -201.5t71 -193.5q8 -17 2 -28t-25 -11h-17q-26 0 -37 20z" />
    <glyph glyph-name="parenright" unicode=")" horiz-adv-x="275" 
d="M44 -54q47 94 69.5 193t22.5 200q0 95 -23 184t-68 174q-9 17 -3.5 27.5t24.5 10.5h17q14 0 23 -4.5t16 -17.5q50 -85 76 -178t26 -195q0 -114 -27 -219.5t-75 -193.5q-12 -22 -40 -22h-15q-20 0 -25.5 11.5t2.5 29.5z" />
    <glyph glyph-name="asterisk" unicode="*" horiz-adv-x="473" 
d="M113 361q-27 19 -5 45l66 85v2l-103 29q-34 8 -23 40l6 19q11 34 41 21l102 -38l-4 108q-3 34 31 34h23q34 0 31 -33l-5 -109l102 37q32 13 42 -19l7 -19q9 -33 -22 -40l-105 -30v-2l66 -84q11 -12 10 -24t-15 -22l-16 -12q-28 -20 -45 8l-60 90h-2l-59 -88
q-19 -30 -46 -10z" />
    <glyph glyph-name="plus" unicode="+" 
d="M75 246q-33 0 -33 33v12q0 33 33 33h191v213q0 33 33 33h16q33 0 33 -33v-213h190q33 0 33 -33v-12q0 -33 -33 -33h-190v-213q0 -33 -33 -33h-16q-33 0 -33 33v213h-191z" />
    <glyph glyph-name="comma" unicode="," horiz-adv-x="237" 
d="M77 77q7 28 37 28h31q19 0 26.5 -10.5t-0.5 -27.5l-68 -166q-10 -25 -39 -25h-11q-38 0 -28 37z" />
    <glyph glyph-name="hyphen" unicode="-" horiz-adv-x="420" 
d="M97 242q-33 0 -33 33v20q0 33 33 33h226q33 0 33 -33v-20q0 -33 -33 -33h-226z" />
    <glyph glyph-name="period" unicode="." horiz-adv-x="228" 
d="M62 72q0 33 33 33h38q33 0 33 -33v-39q0 -33 -33 -33h-38q-33 0 -33 33v39z" />
    <glyph glyph-name="slash" unicode="/" horiz-adv-x="395" 
d="M273 717q9 27 38 27h18q17 0 25 -10t2 -27l-233 -722q-5 -14 -14 -20.5t-24 -6.5h-18q-18 0 -25.5 10t-1.5 27z" />
    <glyph glyph-name="zero" unicode="0" horiz-adv-x="622" 
d="M311 79q43 0 72 21.5t45.5 58.5t23.5 87t7 108q0 57 -7 107t-23.5 87t-45.5 58t-72 21t-71.5 -21t-45.5 -58t-24 -87t-7 -107q0 -58 7 -108t24 -87t45.5 -58.5t71.5 -21.5zM311 -12q-71 0 -118.5 28.5t-77 78t-42 116t-12.5 143.5q0 76 12.5 142.5t42 115.5t77 77.5
t118.5 28.5t119 -28.5t77 -77.5t41.5 -115.5t12.5 -142.5q0 -77 -12.5 -143.5t-41.5 -116t-77 -78t-119 -28.5z" />
    <glyph glyph-name="one" unicode="1" horiz-adv-x="469" 
d="M45 53q0 33 33 33h123v456v30q0 7 1 13h-2q-3 -5 -7 -11q-8 -11 -24 -27l-45 -44q-25 -23 -46 1l-14 14q-24 23 0 47l128 125q17 16 40 16h32q33 0 33 -33v-587h122q33 0 33 -33v-20q0 -33 -33 -33h-341q-33 0 -33 33v20z" />
    <glyph glyph-name="two" unicode="2" horiz-adv-x="559" 
d="M48 54q0 63 25.5 109.5t64 83t83.5 66.5t83.5 59.5t64 62t25.5 73.5q0 53 -35.5 85t-91.5 32q-24 0 -44 -7t-35.5 -16.5t-27 -21t-18.5 -20.5q-11 -11 -22.5 -14.5t-24.5 7.5l-18 14q-26 20 -9 45q10 14 27.5 32.5t43 35t59 27.5t76.5 11q48 0 89 -14.5t71 -41t46.5 -64
t16.5 -83.5q0 -58 -25 -101t-62.5 -77.5t-81.5 -62.5t-82 -56.5t-63.5 -60t-26.5 -71.5h319q33 0 33 -33v-20q0 -33 -33 -33h-392q-15 0 -25 8t-10 25v21z" />
    <glyph glyph-name="three" unicode="3" horiz-adv-x="556" 
d="M53 63q-24 19 -5 46l16 23q19 24 46 6q10 -8 24 -17.5t32.5 -18t40.5 -14.5t48 -6q30 0 56 9.5t45.5 26.5t31 40.5t11.5 52.5q0 33 -13.5 57t-36 40.5t-52 24.5t-62.5 8h-22q-26 0 -37 24l-3 6q-11 23 8 43l136 161q8 10 16.5 18.5l14.5 14.5l13 13v2q-6 -1 -15 -2
q-8 -1 -19.5 -1h-25.5h-206q-33 0 -33 33v20q0 33 33 33h356q33 0 33 -31v-9q0 -24 -15 -40l-177 -204q35 -4 72 -17.5t67 -38.5t49 -62.5t19 -88.5q0 -45 -17 -86.5t-48.5 -72.5t-76 -49.5t-98.5 -18.5q-38 0 -70 8t-58.5 19.5t-46 24.5t-31.5 23z" />
    <glyph glyph-name="four" unicode="4" horiz-adv-x="597" 
d="M365 273v257q0 12 0.5 24.5t1.5 22.5q1 11 3 23h-2q-6 -10 -11 -20q-5 -8 -11 -18.5t-13 -19.5l-200 -267v-2h232zM56 189q-33 0 -33 33v6q0 13 3 22t10 19l300 416q14 21 39 21h55q33 0 33 -33v-400h63q33 0 33 -33v-18q0 -33 -28 -33h-68v-156q0 -33 -33 -33h-32
q-33 0 -33 33v156h-309z" />
    <glyph glyph-name="five" unicode="5" horiz-adv-x="553" 
d="M63 65q-12 10 -12.5 22t9.5 23l16 22q19 24 45 4q8 -8 20 -17.5t28.5 -17.5t36.5 -13.5t45 -5.5q31 0 59 10t49.5 29t34 45.5t12.5 58.5t-12.5 58.5t-34 46t-51 30t-63.5 10.5q-33 0 -58 -9t-39 -16q-24 -9 -44 -2l-9 3q-27 11 -24 39l30 290q3 31 34 31h292q33 0 33 -33
v-20q0 -33 -33 -33h-237l-17 -149q-1 -14 -3 -26q-1 -6 -2 -11h2q12 6 26 11q12 4 28.5 7.5t36.5 3.5q56 0 101.5 -18t77.5 -49.5t49.5 -73t17.5 -89.5q0 -51 -19 -94.5t-52.5 -75.5t-79.5 -50t-99 -18q-38 0 -69 8t-55 20t-41.5 25t-28.5 24z" />
    <glyph glyph-name="six" unicode="6" horiz-adv-x="592" 
d="M158 270q0 -30 12 -64t33 -62t50.5 -46.5t64.5 -18.5q60 0 94.5 41t34.5 105t-38 106t-110 42q-30 0 -55.5 -8.5t-44.5 -22.5t-30 -32.5t-11 -39.5zM55 319q0 69 19 140t58 128.5t99 94t142 36.5q33 0 61 -5.5t45 -11.5q31 -11 19 -42l-9 -25q-6 -17 -16 -20.5t-24 0.5
q-13 5 -31 9t-41 4q-50 0 -87.5 -21t-63.5 -54.5t-41.5 -77t-21.5 -88.5h2q22 30 64.5 50.5t98.5 20.5q49 0 89 -17.5t68.5 -48t44.5 -72t16 -89.5q0 -53 -17 -97t-47 -76.5t-72 -50.5t-92 -18q-56 0 -104.5 23.5t-83.5 67t-55 104.5t-20 136z" />
    <glyph glyph-name="seven" unicode="7" horiz-adv-x="515" 
d="M353 556q8 15 15 27t12 20q6 10 12 18v2q-4 -1 -11 -2q-6 -1 -15.5 -1h-22.5h-283q-33 0 -33 33v20q0 33 33 33h406q33 0 33 -31v-16q0 -11 -2 -20.5t-7 -19.5l-298 -595q-11 -24 -38 -24h-33q-19 0 -25.5 11t1.5 28z" />
    <glyph glyph-name="eight" unicode="8" horiz-adv-x="599" 
d="M153 209q0 -30 12 -55t32.5 -42.5t47 -27t55.5 -9.5q27 0 52.5 9t45 24.5t31.5 37.5t12 48q0 31 -16.5 52t-44 37.5t-64.5 31.5t-78 34q-8 -6 -22 -17.5t-28 -28.5t-24.5 -40.5t-10.5 -53.5zM367 383q4 5 14.5 17.5t21 30.5t18.5 41t8 49q0 53 -35 82t-92 29
q-60 0 -91.5 -29t-31.5 -71q0 -30 16.5 -51.5t43 -38t60 -30.5t68.5 -29zM54 199q0 42 15 75.5t34 57.5t37.5 39t26.5 20q-38 25 -61.5 59t-23.5 83q0 35 13.5 68.5t40.5 59.5t68.5 41.5t97.5 15.5q49 0 90.5 -13.5t71 -37.5t46 -58.5t16.5 -76.5q0 -36 -11.5 -68t-26 -56
t-28.5 -40t-18 -21q43 -26 71.5 -62.5t28.5 -90.5q0 -41 -17 -78t-48.5 -65.5t-76.5 -45.5t-100 -17q-53 0 -98 16t-78 44t-51.5 67t-18.5 84z" />
    <glyph glyph-name="nine" unicode="9" horiz-adv-x="592" 
d="M293 333q30 0 55.5 8.5t44.5 22.5t30 33t11 39q0 30 -12 64t-33 62t-50.5 46.5t-64.5 18.5q-60 0 -94.5 -41t-34.5 -105t38 -106t110 -42zM103 73q6 16 16 19.5t24 -0.5t31.5 -8.5t40.5 -4.5q49 0 87 21t64 55t41.5 77t21.5 88h-2q-23 -31 -67 -50.5t-97 -19.5
q-48 0 -87.5 17.5t-68.5 48t-45 72.5t-16 91q0 52 17 96t47.5 76t72 49.5t90.5 17.5q57 0 105 -23.5t83.5 -67t55.5 -104.5t20 -135q0 -69 -19 -140.5t-58 -129t-99 -94t-142 -36.5q-33 0 -61 5.5t-45 12.5q-31 9 -19 41z" />
    <glyph glyph-name="colon" unicode=":" horiz-adv-x="232" 
d="M66 70q0 33 32 33h36q33 0 33 -33v-37q0 -33 -33 -33h-36q-32 0 -32 33v37zM98 403q-32 0 -32 33v37q0 33 32 33h36q33 0 33 -33v-37q0 -33 -33 -33h-36z" />
    <glyph glyph-name="semicolon" unicode=";" horiz-adv-x="273" 
d="M92 77q7 28 37 28h31q19 0 26 -10.5t0 -27.5l-60 -165q-9 -26 -38 -26h-12q-17 0 -24.5 9.5t-3.5 26.5zM131 401q-33 0 -33 33v39q0 33 33 33h35q33 0 33 -33v-39q0 -33 -33 -33h-35z" />
    <glyph glyph-name="less" unicode="&#x3c;" 
d="M84 241q-25 10 -25 38v11q0 28 25 39l402 179q17 8 28 1t11 -25v-20q0 -26 -26 -38l-332 -140v-2l332 -141q26 -10 26 -38v-19q0 -19 -11 -26t-28 1z" />
    <glyph glyph-name="equal" unicode="=" 
d="M101 151q-33 0 -33 33v12q0 33 33 33h411q33 0 33 -33v-12q0 -33 -33 -33h-411zM101 340q-33 0 -33 33v12q0 33 33 33h411q33 0 33 -33v-12q0 -33 -33 -33h-411z" />
    <glyph glyph-name="greater" unicode="&#x3e;" 
d="M88 105q0 28 25 38l332 141v2l-332 140q-25 12 -25 38v20q0 19 10.5 25.5t27.5 -0.5l403 -180q13 -6 19 -15t6 -24v-11q0 -28 -25 -38l-403 -180q-17 -8 -27.5 -1t-10.5 26v19z" />
    <glyph glyph-name="question" unicode="?" horiz-adv-x="456" 
d="M135 65q0 33 33 33h35q33 0 33 -33v-32q0 -33 -33 -33h-35q-33 0 -33 33v32zM171 194q-33 0 -33 33v20q0 35 12.5 61.5t31.5 48t41 40.5t41 39t31.5 42.5t12.5 51.5q0 21 -8.5 39t-24 31.5t-36.5 21t-46 7.5q-28 0 -50.5 -8.5t-36.5 -16.5q-14 -7 -26.5 -5.5t-20.5 14.5
l-13 18q-19 28 6 45q21 14 59 29t89 15q43 0 81 -13t66.5 -37t45 -57.5t16.5 -75.5q0 -40 -12.5 -69.5t-31.5 -53t-41 -42.5t-41.5 -39t-33.5 -42t-16 -51l-1 -21q-4 -25 -32 -25h-29z" />
    <glyph glyph-name="at" unicode="@" horiz-adv-x="794" 
d="M367 242q0 -24 8.5 -45.5t24.5 -37.5t37 -25t47 -9h100v236h-98q-26 0 -48 -9.5t-38 -25.5t-24.5 -38t-8.5 -46zM52 241q0 77 28.5 144.5t78 117.5t116 79t143.5 29q72 0 121.5 -17t80 -45t44 -64.5t13.5 -76.5v-283h39q33 0 33 -33v-7q0 -33 -33 -33h-240
q-47 0 -85 15.5t-65 41.5t-42 60t-15 72q0 37 14.5 71t41.5 59.5t65.5 41t85.5 15.5h108q-2 43 -43 73t-119 30q-58 0 -108 -23.5t-86.5 -63t-57.5 -92.5t-21 -111q0 -56 18 -105.5t51 -87.5t79.5 -62.5t103.5 -30.5q32 -3 32 -34v-13q0 -16 -8.5 -25t-25.5 -7
q-77 6 -140.5 36.5t-109.5 79t-71.5 112.5t-25.5 137z" />
    <glyph glyph-name="A" unicode="A" horiz-adv-x="621" 
d="M417 285l-78 224q-5 14 -9.5 30.5t-8.5 32.5q-4 18 -9 37h-2q-6 -19 -10 -37q-5 -16 -9 -32.5t-9 -30.5l-79 -224h214zM250 679q9 27 37 27h48q28 0 37 -27l232 -641q6 -17 -1.5 -27.5t-25.5 -10.5h-34q-28 0 -37 27l-63 176h-266l-62 -176q-8 -27 -36 -27h-34
q-19 0 -26 10.5t-1 27.5z" />
    <glyph glyph-name="B" unicode="B" horiz-adv-x="617" 
d="M347 86q57 0 89.5 33t32.5 87t-33 87.5t-89 33.5h-159v-241h159zM337 409q48 0 76 30t28 77t-27.5 75.5t-78.5 28.5h-147v-211h149zM90 673q0 33 33 33h214q45 0 82.5 -12t64.5 -35t42 -56.5t15 -76.5q0 -52 -23 -91.5t-64 -60.5v-2q56 -17 86 -64t30 -107
q0 -50 -18 -87.5t-49 -63t-72.5 -38t-88.5 -12.5h-219q-33 0 -33 33v640z" />
    <glyph glyph-name="C" unicode="C" horiz-adv-x="707" 
d="M46 357q0 77 26.5 143t74 114.5t113.5 76t145 27.5q45 0 82.5 -8t66.5 -19t50.5 -23.5t34.5 -22.5q23 -18 6 -46l-13 -20q-17 -26 -46 -8q-11 7 -28 17t-39.5 18.5t-50 14.5t-59.5 6q-62 0 -110 -21t-82 -57.5t-51.5 -85.5t-17.5 -105t18 -107t52 -89t82.5 -60.5
t109.5 -22.5q35 0 65 7.5t54.5 18t42.5 22.5t30 21q27 21 46 -4l15 -20q19 -25 -5 -46q-14 -11 -36.5 -26.5t-54 -29.5t-72 -24t-88.5 -10q-82 0 -148.5 28.5t-114 78.5t-73 117t-25.5 145z" />
    <glyph glyph-name="D" unicode="D" horiz-adv-x="729" 
d="M317 86q60 0 108.5 17.5t83 51.5t53 84t18.5 115t-19 114.5t-53.5 83.5t-83 51t-107.5 17h-129v-534h129zM90 673q0 33 33 33h201q81 0 147 -23.5t113 -68.5t72.5 -110.5t25.5 -149.5t-25.5 -150t-72.5 -111t-113 -69t-147 -24h-201q-33 0 -33 33v640z" />
    <glyph glyph-name="E" unicode="E" horiz-adv-x="555" 
d="M90 673q0 33 33 33h344q33 0 33 -33v-20q0 -33 -33 -33h-279v-221h221q33 0 33 -33v-20q0 -33 -33 -33h-221v-227h296q33 0 33 -33v-20q0 -33 -33 -33h-361q-33 0 -33 33v640z" />
    <glyph glyph-name="F" unicode="F" horiz-adv-x="505" 
d="M90 673q0 33 33 33h323q33 0 33 -33v-20q0 -33 -33 -33h-258v-232h214q33 0 33 -33v-20q0 -33 -33 -33h-214v-269q0 -33 -33 -33h-32q-33 0 -33 33v640z" />
    <glyph glyph-name="G" unicode="G" horiz-adv-x="751" 
d="M46 351q0 78 27 145.5t75 116.5t114 77t144 28q45 0 82.5 -7.5t67 -18t50.5 -21.5t32 -19q25 -19 7 -45l-14 -21q-16 -25 -46 -9q-12 7 -28.5 16t-38.5 16.5t-48.5 12.5t-58.5 5q-61 0 -109.5 -21.5t-82.5 -58t-52.5 -86t-18.5 -106.5q0 -60 20 -111t54.5 -87.5t81.5 -57
t102 -20.5q49 0 86 14t63 31q30 20 52 46v99h-82q-33 0 -33 33v20q0 33 33 33h139q33 0 33 -33v-289q0 -33 -33 -33h-19q-33 0 -33 28v26v15q0 4 1 7h-2q-22 -25 -55 -44q-28 -17 -68.5 -30.5t-94.5 -13.5q-72 0 -135 27t-110 75t-74.5 114.5t-27.5 146.5z" />
    <glyph glyph-name="H" unicode="H" horiz-adv-x="743" 
d="M90 673q0 33 33 33h32q33 0 33 -33v-278h367v278q0 33 33 33h33q32 0 32 -33v-640q0 -33 -32 -33h-33q-33 0 -33 33v277h-367v-277q0 -33 -33 -33h-32q-33 0 -33 33v640z" />
    <glyph glyph-name="I" unicode="I" horiz-adv-x="278" 
d="M90 673q0 33 33 33h32q33 0 33 -33v-640q0 -33 -33 -33h-32q-33 0 -33 33v640z" />
    <glyph glyph-name="J" unicode="J" horiz-adv-x="522" 
d="M22 205q0 33 33 33h34q17 0 23.5 -7.5t8.5 -26.5q1 -26 8 -49t20.5 -40t33.5 -26.5t48 -9.5q21 0 41 6.5t35.5 21.5t25 38.5t9.5 58.5v416h-145q-32 0 -32 33v20q0 33 32 33h210q33 0 33 -33v-470q0 -57 -18 -98t-47.5 -67t-67 -38t-75.5 -12q-39 0 -76.5 12.5
t-67.5 38.5t-48 67.5t-18 98.5z" />
    <glyph glyph-name="K" unicode="K" horiz-adv-x="605" 
d="M90 673q0 33 33 33h32q33 0 33 -33v-264h106l165 275q12 22 39 22h37q20 0 26.5 -11.5t-3.5 -28.5l-183 -295v-2l196 -330q11 -17 4.5 -28t-26.5 -11h-41q-26 0 -39 23l-175 301h-106v-291q0 -33 -33 -33h-32q-33 0 -33 33v640z" />
    <glyph glyph-name="L" unicode="L" horiz-adv-x="510" 
d="M90 673q0 33 33 33h32q33 0 33 -33v-587h284q33 0 33 -33v-20q0 -33 -33 -33h-349q-33 0 -33 33v640z" />
    <glyph glyph-name="M" unicode="M" horiz-adv-x="845" 
d="M118 675q3 31 34 31h45q28 0 37 -26l153 -356q6 -15 12 -31.5t11 -30.5q6 -17 12 -33h2q5 16 11 33q5 14 11 30.5t12 31.5l153 356q9 26 37 26h45q31 0 34 -31l52 -641q2 -34 -32 -34h-32q-31 0 -34 32l-32 413q-2 16 -2.5 34t-0.5 34q0 18 1 36h-2q-7 -19 -13 -37
q-6 -16 -12.5 -34.5t-12.5 -32.5l-130 -292q-10 -26 -38 -26h-33q-28 0 -38 26l-130 292q-6 14 -12.5 32t-12.5 35q-7 19 -13 39h-2v-37v-34.5t-2 -34.5l-32 -413q-3 -32 -33 -32h-33q-34 0 -32 34z" />
    <glyph glyph-name="N" unicode="N" horiz-adv-x="744" 
d="M90 673q0 33 33 33h38q26 0 40 -22l301 -437q9 -14 19.5 -31.5t18.5 -33.5q10 -18 20 -37h2q-2 18 -3 36q-2 16 -2.5 33.5t-0.5 32.5v426q0 33 33 33h32q33 0 33 -33v-640q0 -33 -33 -33h-38q-27 0 -39 22l-302 436q-10 14 -20 32t-18 34q-10 18 -20 37h-2q1 -19 3 -37
q1 -16 2 -33.5t1 -32.5v-425q0 -33 -33 -33h-32q-33 0 -33 33v640z" />
    <glyph glyph-name="O" unicode="O" horiz-adv-x="815" 
d="M147 358q0 -59 19.5 -110t54.5 -88.5t83 -59t104 -21.5t104 21.5t82.5 59t54 88.5t19.5 110q0 57 -19.5 106.5t-54 85.5t-82.5 56.5t-104 20.5t-104 -20.5t-83 -56.5t-54.5 -85.5t-19.5 -106.5zM45 358q0 76 27 142t75.5 114.5t115 76t145.5 27.5t145.5 -27.5t114.5 -76
t75 -114.5t27 -142q0 -78 -27 -145.5t-75 -117.5t-114.5 -78.5t-145.5 -28.5t-145.5 28.5t-115 78.5t-75.5 117.5t-27 145.5z" />
    <glyph glyph-name="P" unicode="P" horiz-adv-x="596" 
d="M332 347q64 0 100.5 37t36.5 101t-36.5 99.5t-99.5 35.5h-145v-273h144zM90 673q0 33 33 33h225q48 0 89 -15.5t70 -44.5t45.5 -70t16.5 -91t-16.5 -91.5t-45.5 -71t-70 -45.5t-89 -16h-160v-228q0 -33 -33 -33h-32q-33 0 -33 33v640z" />
    <glyph glyph-name="Q" unicode="Q" horiz-adv-x="816" 
d="M148 357q0 -59 19.5 -109.5t54.5 -88t82 -59t103 -21.5q42 0 82.5 13t71.5 39l-59 59q-24 21 -2 46l13 13q22 26 44 4l60 -61q24 33 38 75.5t14 89.5q0 58 -20 107.5t-55 85.5t-83 56.5t-104 20.5t-103 -20.5t-82 -56.5t-54.5 -85.5t-19.5 -107.5zM46 357q0 76 27 142
t75.5 115t114.5 76.5t144 27.5q79 0 146 -27.5t115.5 -76.5t75.5 -115t27 -142q0 -67 -22.5 -126.5t-60.5 -106.5l58 -58q24 -21 3 -46l-13 -14q-24 -24 -45 -2l-60 60q-46 -37 -102.5 -56.5t-121.5 -19.5q-79 0 -145 28.5t-114 78.5t-75 117.5t-27 144.5z" />
    <glyph glyph-name="R" unicode="R" horiz-adv-x="617" 
d="M330 367q58 0 92 35.5t34 95.5q0 38 -16.5 67t-49.5 43q-14 6 -32 9t-52 3h-118v-253h142zM90 673q0 33 33 33h190q52 0 81 -4.5t51 -14.5q51 -23 81 -70t30 -115t-33.5 -121t-92.5 -73v-2q2 -4 6 -8q6 -8 15 -24l127 -235q10 -17 3.5 -28t-25.5 -11h-40q-28 0 -39 23
l-138 258h-151v-248q0 -33 -33 -33h-32q-33 0 -33 33v640z" />
    <glyph glyph-name="S" unicode="S" horiz-adv-x="537" 
d="M58 61q-10 9 -12.5 20t8.5 26l17 24q18 23 45 6q9 -7 24 -16.5t34.5 -18.5t43.5 -15.5t52 -6.5q57 0 90.5 27.5t33.5 73.5q0 39 -25 64t-63 44.5t-82 38t-82 43t-63 60.5t-25 91q0 45 17.5 81t48.5 61.5t73 39.5t90 14q31 0 59 -5.5t51 -13.5t40 -17.5t27 -17.5
q24 -17 10 -45l-14 -25q-9 -16 -20.5 -16.5t-24.5 7.5q-20 12 -52.5 26.5t-77.5 14.5q-55 0 -91 -26.5t-36 -72.5q0 -38 25 -62t63 -42.5t82 -36t82 -42.5t63 -61.5t25 -93.5q0 -42 -15 -78.5t-44 -63.5t-70.5 -43t-94.5 -16q-38 0 -71.5 7.5t-60.5 19t-47.5 24t-32.5 22.5z
" />
    <glyph glyph-name="T" unicode="T" horiz-adv-x="595" 
d="M249 620h-210q-33 0 -33 33v20q0 33 33 33h518q32 0 32 -33v-20q0 -33 -32 -33h-210v-587q0 -33 -33 -33h-33q-32 0 -32 33v587z" />
    <glyph glyph-name="U" unicode="U" horiz-adv-x="717" 
d="M81 673q0 33 33 33h33q32 0 32 -33v-422q0 -81 49 -126.5t130 -45.5t130 45.5t49 127.5v421q0 33 33 33h33q33 0 33 -33v-423q0 -59 -20 -107t-56.5 -82.5t-87.5 -53.5t-113 -19t-113.5 19t-88 53.5t-56.5 82.5t-20 107v423z" />
    <glyph glyph-name="V" unicode="V" horiz-adv-x="623" 
d="M15 668q-6 17 1 27.5t26 10.5h38q28 0 37 -27l166 -472q5 -14 9.5 -31.5t8.5 -31.5q4 -18 9 -34h2q5 16 9 34q4 14 8.5 31.5t9.5 31.5l168 472q9 27 37 27h37q19 0 26 -10.5t1 -27.5l-235 -641q-9 -27 -37 -27h-48q-28 0 -38 27z" />
    <glyph glyph-name="W" unicode="W" horiz-adv-x="945" 
d="M39 670q-8 36 29 36h35q30 0 37 -29l117 -489q3 -14 5.5 -27.5t4.5 -24.5q2 -12 3 -23h2q1 11 4 23q2 11 5 24t8 28l131 490q7 28 37 28h28q30 0 36 -28l131 -490q4 -15 7 -28t5 -24q3 -12 4 -23h2q2 11 4 23q2 11 4 24.5t6 27.5l123 489q7 29 37 29h34q37 0 29 -36
l-169 -642q-7 -28 -37 -28h-55q-28 0 -36 28l-116 430q-5 17 -9 35t-7 32q-4 17 -6 33h-3q-3 -16 -7 -33q-3 -14 -6.5 -32t-8.5 -35l-116 -430q-8 -28 -37 -28h-55q-29 0 -37 29z" />
    <glyph glyph-name="X" unicode="X" horiz-adv-x="587" 
d="M232 364l-184 303q-11 17 -4.5 28t26.5 11h42q14 0 22.5 -5.5t16.5 -16.5l97 -169q8 -14 16 -29t15 -27l14 -28h2q6 13 13 27q6 12 14 27t17 30l99 169q12 22 38 22h42q20 0 26.5 -11t-4.5 -28l-186 -303l199 -325q11 -17 4.5 -28t-26.5 -11h-39q-26 0 -39 23l-115 194
q-9 15 -17 29.5t-14 25.5l-14 26h-2q-6 -13 -13 -26q-6 -11 -14 -26t-16 -29l-114 -194q-13 -23 -39 -23h-38q-20 0 -27 11t4 28z" />
    <glyph glyph-name="Y" unicode="Y" horiz-adv-x="567" 
d="M234 299l-214 368q-10 17 -3.5 28t26.5 11h40q26 0 38 -23l119 -209q8 -15 15.5 -31t13.5 -29q7 -15 14 -29h2q6 14 13 29q6 13 14 29t16 31l118 209q11 23 38 23h40q20 0 26.5 -11t-3.5 -28l-214 -368v-266q0 -33 -33 -33h-33q-33 0 -33 33v266z" />
    <glyph glyph-name="Z" unicode="Z" horiz-adv-x="588" 
d="M32 43q0 13 3 22t11 20l326 471q10 15 19.5 27t16.5 20q8 10 15 18v2q-6 -1 -14 -2q-7 -1 -16.5 -1h-22.5h-287q-33 0 -33 33v20q0 33 33 33h430q33 0 33 -32v-10q0 -22 -13 -42l-327 -472q-11 -15 -20 -27t-16 -20q-8 -10 -15 -17v-2q6 0 14 1q7 0 16.5 0.5t22.5 0.5
h309q33 0 33 -33v-20q0 -33 -33 -33h-452q-33 0 -33 33v10z" />
    <glyph glyph-name="bracketleft" unicode="[" horiz-adv-x="285" 
d="M80 703q0 32 33 32h100q32 0 32 -32v-8q0 -33 -31 -33h-49v-683h48q32 0 32 -33v-8q0 -33 -32 -33h-100q-33 0 -33 33v765z" />
    <glyph glyph-name="backslash" unicode="\" horiz-adv-x="395" 
d="M39 707q-5 17 2.5 27t25.5 10h17q29 0 38 -27l234 -722q5 -17 -2.5 -27t-25.5 -10h-18q-28 0 -38 27z" />
    <glyph glyph-name="bracketright" unicode="]" horiz-adv-x="285" 
d="M40 -54q0 33 32 33h48v683h-48q-32 0 -32 33v8q0 32 32 32h100q33 0 33 -32v-765q0 -33 -33 -33h-100q-32 0 -32 33v8z" />
    <glyph glyph-name="asciicircum" unicode="^" 
d="M111 247q-19 0 -26 11t1 28l172 395q10 25 38 25h9q28 0 38 -25l172 -395q8 -17 1 -28t-27 -11h-17q-27 0 -38 26l-134 326l-133 -326q-11 -26 -38 -26h-18z" />
    <glyph glyph-name="underscore" unicode="_" horiz-adv-x="550" 
d="M6 -33q0 33 33 33h472q33 0 33 -33v-12q0 -33 -33 -33h-472q-33 0 -33 33v12z" />
    <glyph glyph-name="grave" unicode="`" horiz-adv-x="499" 
d="M281 755q-14 0 -23 4.5t-17 15.5l-49 67q-13 17 -8.5 28.5t25.5 11.5h30q26 0 39 -23l39 -68q8 -14 4.5 -25t-20.5 -11h-20z" />
    <glyph glyph-name="a" unicode="a" horiz-adv-x="517" 
d="M127 146q0 -30 23.5 -55.5t70.5 -25.5q32 0 57.5 14.5t43 38t27 52t9.5 56.5v22h-26q-27 0 -62 -2.5t-67 -12.5t-54 -30.5t-22 -56.5zM29 138q0 39 15 67.5t40 47.5t56.5 31t65.5 18t66.5 8t58.5 2h26v13q0 31 -8.5 52.5t-23.5 34.5t-35 18.5t-43 5.5q-38 0 -67.5 -11
t-46.5 -21q-29 -14 -45 12l-8 14q-16 30 11 45q23 13 64.5 28t99.5 15q95 0 147 -50.5t52 -147.5v-287q0 -33 -33 -33h-25q-33 0 -33 33v30v13t1 10l2 8h-2q-15 -30 -38 -53q-20 -20 -51 -36.5t-76 -16.5q-33 0 -64 10t-54.5 29.5t-37.5 47t-14 63.5z" />
    <glyph glyph-name="b" unicode="b" horiz-adv-x="592" 
d="M165 253q0 -35 9 -67.5t26.5 -58t44 -40.5t62.5 -15q30 0 57 12t47 35t31.5 56.5t11.5 76.5q0 41 -10.5 74.5t-29.5 57t-45.5 36.5t-57.5 13q-29 0 -55 -10.5t-46.5 -32.5t-32.5 -56t-12 -81zM71 673q0 33 33 33h31q32 0 32 -33v-205q0 -10 -0.5 -17.5t-1.5 -13.5
q-1 -7 -1 -12h2q14 26 37 46q20 17 51.5 32t76.5 15q50 0 91 -19.5t70 -54t44.5 -83.5t15.5 -107q0 -61 -17 -110t-48 -83.5t-73 -53.5t-91 -19q-45 0 -75.5 15t-50.5 33q-23 21 -36 48h-2q0 -4 1 -8q2 -10 2 -22v-25q0 -29 -33 -29h-25q-33 0 -33 33v640z" />
    <glyph glyph-name="c" unicode="c" horiz-adv-x="531" 
d="M37 253q0 56 20 104.5t56 84t85.5 56t108.5 20.5q32 0 58 -5.5t47 -13.5t36.5 -17.5t25.5 -17.5q13 -8 14 -20t-8 -25l-10 -15q-16 -25 -45 -8q-16 11 -44.5 24.5t-68.5 13.5q-38 0 -70.5 -13.5t-56 -37.5t-36.5 -57t-13 -72t13 -72t37 -57.5t56.5 -38.5t71.5 -14
q46 0 78.5 16t50.5 30q28 18 45 -9l8 -15q16 -27 -9 -44q-11 -9 -27.5 -19.5t-39 -20t-51 -16t-62.5 -6.5q-60 0 -109.5 20t-85 55.5t-55.5 84t-20 105.5z" />
    <glyph glyph-name="d" unicode="d" horiz-adv-x="592" 
d="M138 253q0 -41 10.5 -74.5t29.5 -57t45 -36.5t58 -13q28 0 54.5 10.5t46.5 32.5t32.5 56.5t12.5 82.5q0 34 -9 66t-27 57t-45 40.5t-63 15.5q-30 0 -56 -12t-46 -35t-31.5 -56.5t-11.5 -76.5zM39 253q0 60 17 109t47.5 83.5t72.5 53.5t92 19q44 0 73.5 -13.5t48.5 -30.5
q22 -19 35 -43h2l-2 10t-1 10.5v13.5v208q0 33 33 33h31q33 0 33 -33v-640q0 -33 -33 -33h-26q-33 0 -33 31v29q0 13 1 18q0 4 1 7h-2q-14 -28 -37 -49q-20 -18 -51.5 -33t-78.5 -15q-51 0 -92.5 19.5t-70.5 54.5t-44.5 83.5t-15.5 107.5z" />
    <glyph glyph-name="e" unicode="e" horiz-adv-x="545" 
d="M412 307q-2 67 -37.5 101t-85.5 34q-56 0 -96.5 -35.5t-51.5 -99.5h271zM38 253q0 60 19.5 109t53 83.5t80 53.5t100.5 19q52 0 93 -18t68.5 -50t42 -76t14.5 -97q0 -14 -9.5 -24t-24.5 -10h-338q2 -41 17 -73t39 -54t54.5 -33t64.5 -11q42 0 73 13.5t48 26.5
q30 16 45 -11l9 -15q8 -13 5.5 -24.5t-15.5 -19.5q-11 -8 -28 -17.5t-38.5 -17.5t-48 -13.5t-56.5 -5.5q-60 0 -109 20.5t-84.5 56t-55 84t-19.5 104.5z" />
    <glyph glyph-name="f" unicode="f" horiz-adv-x="322" 
d="M92 422h-32q-33 0 -33 33v13q0 33 33 33h32v24q0 60 21.5 96.5t50.5 56.5t60 26.5t51 6.5h12q33 0 33 -33v-19q0 -17 -9 -24t-26 -9q-14 -1 -30.5 -4t-31 -14t-24.5 -31.5t-10 -55.5v-20h87q33 0 33 -33v-13q0 -33 -33 -33h-87v-389q0 -33 -33 -33h-31q-33 0 -33 33v389z
" />
    <glyph glyph-name="g" unicode="g" horiz-adv-x="585" 
d="M285 90q26 0 50.5 8.5t43 29t29.5 53.5t11 82q0 50 -11.5 83t-30.5 52.5t-44.5 27.5t-53.5 8q-69 0 -104.5 -44.5t-35.5 -119.5q0 -82 38.5 -131t107.5 -49zM106 -121q13 28 42 17q18 -7 45 -14.5t65 -7.5q32 0 61 7.5t50.5 24.5t34.5 44t13 66v44v11.5t1 10.5l2 10h-2
q-22 -40 -58.5 -63t-91.5 -23q-53 0 -95.5 20t-72 54.5t-45 82t-15.5 103.5q0 54 15 100t43.5 80t70.5 53t97 19q47 0 77.5 -13.5t48.5 -29.5q21 -18 32 -42h2q-1 1 -1 4q-1 3 -1 12v29q0 28 33 28h24q33 0 33 -33v-452q0 -63 -22 -106.5t-57.5 -71.5t-80.5 -40.5t-91 -12.5
q-42 0 -80 7.5t-67 20.5q-30 13 -17 44z" />
    <glyph glyph-name="h" unicode="h" horiz-adv-x="592" 
d="M71 673q0 33 33 33h31q32 0 32 -33v-229q0 -9 -0.5 -17t-1.5 -13q-1 -7 -1 -12h2q8 18 24.5 38.5t40.5 38t55 28.5t69 11q90 0 132 -48.5t42 -145.5v-291q0 -33 -33 -33h-31q-33 0 -33 33v269q0 27 -3.5 50t-14 40t-29.5 27t-49 10q-36 0 -67 -14t-53.5 -39.5t-35.5 -60
t-13 -75.5v-207q0 -33 -32 -33h-31q-33 0 -33 33v640z" />
    <glyph glyph-name="i" unicode="i" horiz-adv-x="237" 
d="M70 473q0 33 33 33h31q33 0 33 -33v-440q0 -33 -33 -33h-31q-33 0 -33 33v440zM102 607q-33 0 -33 33v33q0 33 33 33h34q33 0 33 -33v-33q0 -33 -33 -33h-34z" />
    <glyph glyph-name="j" unicode="j" horiz-adv-x="238" 
d="M71 473q0 33 33 33h31q32 0 32 -33v-488q0 -62 -21.5 -100t-51 -58t-60.5 -26.5t-49 -6.5h-12q-33 0 -33 33v18q0 19 9.5 25t23.5 8q15 1 32 5t31.5 16t24.5 33t10 57v484zM102 607q-33 0 -33 33v33q0 33 33 33h34q33 0 33 -33v-33q0 -33 -33 -33h-34z" />
    <glyph glyph-name="k" unicode="k" horiz-adv-x="509" 
d="M71 673q0 33 33 33h31q32 0 32 -33v-352h73l123 164q13 21 39 21h37q20 0 26 -11.5t-6 -28.5l-140 -183v-2l162 -241q11 -17 4.5 -28.5t-26.5 -11.5h-40q-26 0 -39 23l-138 214h-75v-204q0 -33 -32 -33h-31q-33 0 -33 33v640z" />
    <glyph glyph-name="l" unicode="l" horiz-adv-x="262" 
d="M70 673q0 33 33 33h31q33 0 33 -33v-523q0 -21 4 -34t11 -20t15 -9.5t16 -3.5q11 -2 18.5 -8.5t7.5 -20.5v-24q0 -16 -7.5 -25t-26.5 -9q-20 0 -44 4.5t-44 19t-33.5 42.5t-13.5 76v535z" />
    <glyph glyph-name="m" unicode="m" horiz-adv-x="902" 
d="M70 473q0 33 33 33h28q33 0 33 -33v-45q0 -10 -2 -20q-1 -4 -1 -9h2q9 22 26.5 43.5t41 38t51 27t57.5 10.5q125 0 152 -115h2q10 22 28 43t41 37t51 25.5t59 9.5q87 0 127 -48.5t40 -145.5v-291q0 -33 -33 -33h-31q-33 0 -33 33v270q0 27 -3.5 50t-13 40t-27 27
t-45.5 10q-35 0 -63 -16.5t-47.5 -44t-29.5 -62.5t-10 -71v-203q0 -33 -32 -33h-32q-32 0 -32 33v270q0 25 -3 48t-12 40.5t-26.5 28t-46.5 10.5q-36 0 -64.5 -17t-48 -44.5t-29.5 -62.5t-10 -70v-203q0 -33 -33 -33h-31q-33 0 -33 33v440z" />
    <glyph glyph-name="n" unicode="n" horiz-adv-x="591" 
d="M70 473q0 33 33 33h28q33 0 33 -33v-45q0 -10 -2 -20q-1 -4 -1 -9h2q7 16 22.5 37t39.5 39t56 30.5t74 12.5q90 0 131.5 -48.5t41.5 -145.5v-291q0 -33 -33 -33h-31q-33 0 -33 33v269q0 27 -3.5 50t-13.5 40t-29 27t-49 10q-37 0 -68 -14.5t-53.5 -39.5t-35 -59.5
t-12.5 -73.5v-209q0 -33 -33 -33h-31q-33 0 -33 33v440z" />
    <glyph glyph-name="o" unicode="o" horiz-adv-x="619" 
d="M135 254q0 -40 14 -73.5t37.5 -57.5t55 -37.5t67.5 -13.5t67.5 13.5t55.5 37.5t37.5 57.5t13.5 73.5q0 39 -13.5 72t-37.5 57t-55.5 37.5t-67.5 13.5t-67.5 -13.5t-55 -37.5t-37.5 -57t-14 -72zM37 254q0 57 21.5 105.5t58 84t86 55t106.5 19.5t106.5 -19.5t86.5 -55
t58.5 -84t21.5 -105.5q0 -58 -21.5 -106.5t-58.5 -84t-86.5 -55.5t-106.5 -20t-106.5 20t-86 55.5t-58 84t-21.5 106.5z" />
    <glyph glyph-name="p" unicode="p" horiz-adv-x="592" 
d="M165 251q0 -34 9.5 -66t27.5 -57t44.5 -40.5t61.5 -15.5q30 0 56.5 12t46.5 35t31.5 56.5t11.5 76.5q0 41 -10.5 74.5t-29.5 57t-45.5 36.5t-57.5 13q-29 0 -55 -10.5t-46.5 -32.5t-32.5 -56.5t-12 -82.5zM71 473q0 33 33 33h23q33 0 33 -28v-30q0 -6 -0.5 -10.5
t-0.5 -8.5q-1 -4 -1 -8h2q13 27 37 48q20 18 52.5 33.5t80.5 15.5q51 0 92 -19.5t70 -54.5t44.5 -83.5t15.5 -107.5q0 -60 -17 -109t-48 -83.5t-73 -53.5t-91 -19q-44 0 -73.5 14t-48.5 31q-22 19 -35 45h-2q0 -5 1 -12q1 -6 1.5 -14t0.5 -18v-201q0 -33 -32 -33h-31
q-33 0 -33 33v640z" />
    <glyph glyph-name="q" unicode="q" horiz-adv-x="592" 
d="M138 253q0 -41 10.5 -74.5t29.5 -57t45 -36.5t58 -13q28 0 54.5 10.5t46.5 32.5t32.5 56.5t12.5 82.5q0 34 -9 66t-27 57t-45 40.5t-63 15.5q-30 0 -56 -12t-46 -35t-31.5 -56.5t-11.5 -76.5zM39 253q0 60 17 109t47.5 83.5t73 53.5t92.5 19q45 0 75.5 -15t50.5 -32
q22 -21 36 -47h2q-1 4 -1 8q-1 4 -1 9v11v26q0 28 33 28h24q33 0 33 -33v-640q0 -33 -33 -33h-31q-33 0 -33 33v205v18t1 14q1 7 2 12h-2q-13 -27 -36 -47q-20 -18 -51 -32.5t-78 -14.5q-50 0 -90.5 19.5t-69.5 54.5t-45 83.5t-16 107.5z" />
    <glyph glyph-name="r" unicode="r" horiz-adv-x="356" 
d="M70 473q0 33 33 33h28q33 0 33 -33v-58q0 -8 -0.5 -15t-1.5 -12q-1 -6 -1 -11h2q8 25 22.5 49t34.5 42.5t44.5 30t53.5 11.5q32 0 32 -33v-28q0 -33 -36 -33q-37 0 -64.5 -18.5t-46 -47.5t-27.5 -66.5t-9 -74.5v-176q0 -33 -33 -33h-31q-33 0 -33 33v440z" />
    <glyph glyph-name="s" unicode="s" horiz-adv-x="439" 
d="M50 43q-13 8 -14 20t7 25l10 14q10 13 20.5 14t25.5 -7q17 -11 48 -26t76 -15q38 0 62 17.5t24 49.5q0 25 -19.5 40t-48.5 27.5t-62.5 24t-62.5 30t-48.5 45.5t-19.5 70q0 36 14.5 63.5t39.5 45.5t58.5 27.5t70.5 9.5q53 0 87.5 -14t52.5 -25q14 -7 16.5 -18.5
t-5.5 -25.5l-9 -15q-14 -25 -44 -11q-16 9 -41.5 19t-61.5 10t-60.5 -16t-24.5 -48q0 -25 19.5 -40.5t48.5 -27.5t62.5 -24t62.5 -29.5t48.5 -45t19.5 -70.5q0 -32 -13 -59.5t-37 -47.5t-57.5 -31t-74.5 -11q-32 0 -58.5 5.5t-47.5 14t-37.5 18t-26.5 17.5z" />
    <glyph glyph-name="t" unicode="t" horiz-adv-x="342" 
d="M94 422h-35q-32 0 -32 33v13q0 33 33 33h36v111q0 33 33 33h29q33 0 33 -33v-111h88q33 0 33 -33v-13q0 -33 -32 -33h-89v-225q0 -36 10 -58t24.5 -34t31 -16.5t30.5 -5.5q20 -2 27.5 -9t7.5 -24v-21q0 -33 -40 -33q-38 0 -72 11t-59.5 34t-41 58t-15.5 83v240z" />
    <glyph glyph-name="u" unicode="u" horiz-adv-x="587" 
d="M64 473q0 33 33 33h31q32 0 32 -33v-269q0 -26 3.5 -49t14 -40t29 -27t48.5 -10q39 0 69.5 16t52 42t32.5 60.5t11 72.5v204q0 33 33 33h31q33 0 33 -33v-440q0 -33 -33 -33h-28q-33 0 -33 33v45v10.5t1 9.5t2 9h-2q-8 -19 -24.5 -40t-40.5 -38.5t-55 -29t-68 -11.5
q-86 0 -129 46.5t-43 147.5v291z" />
    <glyph glyph-name="v" unicode="v" horiz-adv-x="499" 
d="M19 468q-6 17 1 27.5t25 10.5h34q28 0 37 -27l114 -315q4 -11 7.5 -22.5t5.5 -22.5q3 -12 5 -24h2l6 24q2 11 5 22.5t7 22.5l114 315q9 27 37 27h34q18 0 25.5 -10.5t0.5 -27.5l-164 -442q-9 -26 -37 -26h-56q-28 0 -37 26z" />
    <glyph glyph-name="w" unicode="w" horiz-adv-x="803" 
d="M23 469q-5 17 2.5 27t25.5 10h33q30 0 37 -28l99 -327q2 -10 4.5 -19.5t4.5 -17.5q2 -9 3 -17h2q1 8 4 17q2 8 4.5 17.5t5.5 19.5l102 326q6 28 36 28h31q30 0 37 -28l102 -326q2 -10 4.5 -19.5t4.5 -17.5q2 -9 4 -17h2q1 8 3 17q2 8 4.5 17.5t5.5 19.5l99 327
q6 28 36 28h33q18 0 25.5 -10t2.5 -27l-143 -441q-7 -28 -37 -28h-49q-30 0 -37 28l-97 297q-4 10 -6 19.5t-4 17.5l-4 18h-2q-1 -9 -4 -18q-2 -8 -5 -17.5t-6 -19.5l-96 -297q-7 -28 -37 -28h-50q-30 0 -37 28z" />
    <glyph glyph-name="x" unicode="x" horiz-adv-x="483" 
d="M182 260l-138 206q-11 17 -4.5 28.5t26.5 11.5h38q26 0 38 -23l82 -131q2 -5 5.5 -10t5.5 -10l5 -10h2l6 10q2 5 5 10l6 10l81 131q13 23 39 23h37q20 0 26.5 -11.5t-4.5 -28.5l-137 -206l147 -220q11 -17 4.5 -28.5t-26.5 -11.5h-36q-26 0 -39 23l-93 146q-3 5 -6 9
t-5 9q-3 4 -5 10h-2q-2 -6 -5 -10q-2 -5 -4.5 -9t-5.5 -9l-93 -146q-13 -23 -39 -23h-36q-20 0 -26.5 11.5t4.5 28.5z" />
    <glyph glyph-name="y" unicode="y" horiz-adv-x="502" 
d="M21 -134q6 14 16 17t21 0q8 -3 17.5 -7t22.5 -4q31 0 53 23t34 53l25 58l-196 462q-8 17 -0.5 27.5t25.5 10.5h39q28 0 37 -26l119 -305q3 -10 6.5 -20.5t5.5 -19.5q3 -11 6 -21h2l5 20q2 9 5 19.5t7 20.5l115 305q9 27 37 27h36q18 0 25.5 -10.5t0.5 -27.5l-223 -557
q-23 -60 -66.5 -90.5t-97.5 -30.5q-22 0 -39.5 5.5t-30.5 10.5q-14 6 -17.5 18t2.5 25z" />
    <glyph glyph-name="z" unicode="z" horiz-adv-x="500" 
d="M31 36q0 13 3 20.5t11 17.5l241 302q8 10 15.5 19t13.5 15l13 13v2q-5 -1 -12 -1q-6 -1 -15.5 -1h-21.5h-204q-33 0 -33 33v17q0 33 33 33h351q33 0 33 -28v-8q0 -13 -3 -20.5t-11 -17.5l-241 -303q-8 -10 -15.5 -18.5t-13.5 -14.5q-7 -7 -14 -13v-2q5 0 12 1q6 0 15 0.5
t22 0.5h224q33 0 33 -32v-18q0 -33 -33 -33h-370q-33 0 -33 28v8z" />
    <glyph glyph-name="braceleft" unicode="{" horiz-adv-x="325" 
d="M112 173q0 24 -6 41.5t-14.5 29.5t-18.5 19t-19 11q-13 7 -20 14.5t-7 22.5v29q0 14 7 21.5t20 14.5q9 4 19 11.5t18.5 19.5t14.5 29.5t6 42.5v83q0 57 17 91.5t40 53t47 24.5t38 6h11q33 0 33 -33v-12q0 -33 -33 -33q-8 0 -19.5 -3t-22 -13.5t-18.5 -31.5t-8 -57v-100
q0 -38 -13 -62.5t-28 -38.5q-18 -17 -40 -26v-2q22 -8 40 -25q15 -14 28 -39t13 -63v-113q0 -36 8 -57t18.5 -31.5t22 -13.5t19.5 -3q33 0 33 -33v-12q0 -33 -33 -33h-11q-14 0 -38 6t-47 24.5t-40 53t-17 91.5v96z" />
    <glyph glyph-name="bar" unicode="|" horiz-adv-x="243" 
d="M79 759q0 33 33 33h19q33 0 33 -33v-885q0 -33 -33 -33h-19q-33 0 -33 33v885z" />
    <glyph glyph-name="braceright" unicode="}" horiz-adv-x="326" 
d="M27 -53q0 33 33 33q7 0 19 3t22.5 13.5t18.5 31.5t8 57v113q0 38 12.5 63t27.5 39q18 17 41 25v2q-23 9 -41 26q-15 14 -27.5 38.5t-12.5 62.5v100q0 36 -8 57t-18.5 31.5t-22.5 13.5t-19 3q-33 0 -33 33v12q0 33 33 33h11q14 0 38 -6t47 -24.5t40 -53t17 -91.5v-83
q0 -25 6 -42.5t14.5 -29.5t18.5 -19.5t19 -11.5q13 -7 20 -14.5t7 -21.5v-29q0 -15 -7 -22.5t-20 -14.5q-9 -4 -19 -11t-18.5 -19t-14.5 -29.5t-6 -41.5v-96q0 -57 -17 -91.5t-40 -53t-47 -24.5t-38 -6h-11q-33 0 -33 33v12z" />
    <glyph glyph-name="asciitilde" unicode="~" horiz-adv-x="589" 
d="M90 204q-17 0 -25.5 11t-5.5 32q9 66 45 96t92 30q39 0 63.5 -15.5t43.5 -33.5t37.5 -33.5t47.5 -15.5q15 0 26 6t18 15t11.5 20t6.5 22q5 14 12.5 22.5t22.5 8.5h15q16 0 24.5 -9t6.5 -26q-7 -70 -43.5 -102t-93.5 -32q-39 0 -63.5 15t-43.5 33.5t-38 33.5t-47 15
q-31 0 -44 -20.5t-18 -42.5q-5 -14 -12.5 -22t-22.5 -8h-15z" />
    <glyph glyph-name="uni00A0" unicode="&#xa0;" horiz-adv-x="250" 
 />
    <glyph glyph-name="exclamdown" unicode="&#xa1;" horiz-adv-x="253" 
d="M176 441q0 -33 -33 -33h-34q-33 0 -33 33v32q0 33 33 33h34q33 0 33 -33v-32zM138 312q33 0 33 -33l5 -446q0 -33 -32 -33h-34q-33 0 -33 33l5 446q2 33 34 33h22z" />
    <glyph glyph-name="cent" unicode="&#xa2;" horiz-adv-x="559" 
d="M258 73q-49 7 -88 31t-66 61.5t-41.5 85.5t-14.5 102t14.5 102.5t41.5 86t66 61.5t88 31v51q0 33 32 33h8q31 0 31 -28v-56q59 -8 104.5 -43t69.5 -81q15 -29 -17 -43l-28 -11q-17 -6 -26 -1t-17 17q-20 33 -49 52.5t-68 19.5q-37 0 -65 -14.5t-47 -40t-29 -60.5t-10 -77
q0 -41 9.5 -75.5t28 -60t47 -39.5t66.5 -14q40 0 68.5 19.5t48.5 52.5q8 11 17 16.5t26 -0.5l28 -11q32 -14 17 -43q-12 -23 -29.5 -44t-39.5 -38t-48.5 -28t-56.5 -14v-53q0 -33 -31 -33h-8q-32 0 -32 33v53z" />
    <glyph glyph-name="sterling" unicode="&#xa3;" horiz-adv-x="578" 
d="M53 53q0 33 33 33h30v233h-21q-30 0 -30 32v6q0 32 30 32h21v136q0 42 16 77t45 61t69 40.5t87 14.5q48 0 84 -14.5t57 -28.5q27 -20 4 -46l-15 -20q-18 -22 -46 -5q-13 8 -35 16t-48 8q-56 0 -87 -31t-31 -76v-132h151q33 0 33 -32v-6q0 -32 -33 -32h-151v-233h292
q33 0 33 -33v-20q0 -33 -33 -33h-422q-33 0 -33 33v20z" />
    <glyph glyph-name="currency" unicode="&#xa4;" horiz-adv-x="506" 
d="M253 222q57 0 88 40.5t31 102.5q0 30 -8 56.5t-23 46t-37.5 30.5t-50.5 11q-29 0 -51 -11t-37.5 -30.5t-23.5 -46t-8 -56.5q0 -31 8 -57t23.5 -45t37.5 -30t51 -11zM19 168l69 71q-38 55 -38 126t38 124l-69 71l45 43l67 -69q24 18 54.5 29t67.5 11q36 0 67 -11t55 -29
l67 69l45 -43l-69 -71q37 -54 37 -124q0 -35 -10 -67t-28 -58l70 -72l-45 -43l-68 69q-49 -37 -121 -37t-121 37l-68 -69z" />
    <glyph glyph-name="yen" unicode="&#xa5;" horiz-adv-x="590" 
d="M115 199q-33 0 -33 29v6q0 28 33 28h130v37l-27 48h-103q-33 0 -33 29v6q0 28 29 28h74l-145 257q-9 17 -2.5 28t26.5 11h41q28 0 38 -25l108 -195l16 -36t14 -33q7 -18 13 -33h2q6 15 13 33q6 15 14 33l16 36l108 195q10 25 38 25h41q20 0 26.5 -11t-2.5 -28l-145 -257
h69q33 0 33 -28v-6q0 -29 -33 -29h-103l-26 -48v-37h129q33 0 33 -28v-6q0 -29 -33 -29h-129v-166q0 -33 -33 -33h-34q-33 0 -33 33v166h-130z" />
    <glyph glyph-name="section" unicode="&#xa7;" horiz-adv-x="439" 
d="M75 29q9 14 20 15.5t25 -6.5q13 -8 31 -13.5t39 -5.5q44 0 75 26t31 79q0 19 -6 45l-58 340q-4 17 4 26.5t25 9.5h12q30 0 36 -29l64 -361q2 -12 3.5 -23t1.5 -22q0 -37 -13 -68.5t-37.5 -54.5t-59.5 -36t-79 -13q-38 0 -67 11t-47 22q-14 8 -15.5 20t7.5 25zM69 501
q-5 25 -5 46q0 36 13 67.5t37.5 54.5t59.5 36t79 13q38 0 67 -10.5t47 -21.5q27 -17 8 -46l-9 -12q-10 -12 -20.5 -13.5t-24.5 5.5q-13 6 -30 11.5t-38 5.5q-45 0 -76 -25t-31 -76q0 -18 6 -40l59 -349q4 -17 -4 -26.5t-25 -9.5h-12q-30 0 -36 29z" />
    <glyph glyph-name="dieresis" unicode="&#xa8;" horiz-adv-x="499" 
d="M159 781q-33 0 -33 33v35q0 33 33 33h14q33 0 33 -33v-35q0 -33 -33 -33h-14zM326 781q-33 0 -33 33v35q0 33 33 33h14q33 0 33 -33v-35q0 -33 -33 -33h-14z" />
    <glyph glyph-name="copyright" unicode="&#xa9;" horiz-adv-x="816" 
d="M217 352q0 39 13.5 75.5t39 64t62.5 44t83 16.5q27 0 50.5 -7.5t41.5 -18t31 -22.5t21 -22q8 -11 6.5 -21t-9.5 -16l-13 -11q-9 -8 -20 -6t-20 13q-11 12 -32 27t-54 15q-30 0 -53.5 -10.5t-39 -28.5t-24 -42t-8.5 -51q0 -26 8 -49.5t23.5 -41.5t39 -28.5t54.5 -10.5
q36 0 57.5 15.5t32.5 28.5q18 21 36 4l12 -9q11 -10 11 -20t-7 -19q-8 -9 -21 -21t-31.5 -22.5t-41.5 -18t-50 -7.5q-47 0 -83.5 16.5t-62 44t-39 63.5t-13.5 76zM124 353q0 -63 21.5 -117t59.5 -94t89.5 -63t111.5 -23t112.5 23t91 63t60.5 94t22 117t-22 117t-60.5 94
t-90.5 63t-113 23q-60 0 -111.5 -23t-89.5 -63t-59.5 -94t-21.5 -117zM51 353q0 76 28 142.5t76 116t112.5 78t138.5 28.5q75 0 140 -28.5t114 -78t77 -116t28 -142.5t-28 -142.5t-77 -116t-114 -78t-140 -28.5q-74 0 -138.5 28.5t-112.5 78t-76 116t-28 142.5z" />
    <glyph glyph-name="ordfeminine" unicode="&#xaa;" horiz-adv-x="400" 
d="M95 265q-33 0 -33 27v4q0 26 33 26h209q33 0 33 -26v-4q0 -27 -33 -27h-209zM186 441q17 0 31 8t23.5 20.5t15 28.5t5.5 32v8h-12q-14 0 -33.5 -1.5t-37.5 -6.5t-30.5 -16t-12.5 -30q0 -17 13 -30t38 -13zM172 382q-21 0 -40.5 6.5t-35 18.5t-25 30.5t-9.5 42.5
q0 40 22 62t52.5 32.5t62.5 12.5t52 2h10v6q0 35 -18 49t-45 14q-17 0 -33 -5t-27 -10q-26 -11 -37 9l-3 6q-6 11 -2.5 20.5t18.5 16.5q14 7 37.5 14t54.5 7q63 0 95 -32.5t32 -93.5v-168q0 -33 -30 -33h-4q-31 0 -31 31v21h-2q-9 -17 -22 -30q-11 -11 -29 -20t-43 -9z" />
    <glyph glyph-name="guillemotleft" unicode="&#xab;" horiz-adv-x="523" 
d="M50 259q-20 23 0 46l129 164q16 19 41 19h20q21 0 27 -11.5t-8 -28.5l-131 -166l131 -165q14 -17 9.5 -28.5t-24.5 -11.5h-24q-25 0 -41 19zM251 259q-18 23 0 46l130 164q16 19 40 19h21q21 0 27 -11.5t-8 -28.5l-131 -166l131 -165q14 -17 9 -28.5t-25 -11.5h-24
q-24 0 -40 19z" />
    <glyph glyph-name="logicalnot" unicode="&#xac;" horiz-adv-x="617" 
d="M99 340q-33 0 -33 33v12q0 33 33 33h411q33 0 33 -33v-201q0 -33 -33 -33h-15q-33 0 -33 33v156h-363z" />
    <glyph glyph-name="uni00AD" unicode="&#xad;" horiz-adv-x="420" 
d="M97 242q-33 0 -33 33v20q0 33 33 33h226q33 0 33 -33v-20q0 -33 -33 -33h-226z" />
    <glyph glyph-name="registered" unicode="&#xae;" horiz-adv-x="816" 
d="M415 364q29 0 45 17t16 47q0 29 -16 45t-44 16h-61v-125h60zM284 510q0 33 33 33h113q54 0 86 -31t32 -84q0 -22 -6.5 -39t-16.5 -29.5t-22 -20.5t-24 -11v-2q1 -1 3 -4q2 -2 4 -6.5t6 -10.5l52 -101q9 -17 4 -27.5t-22 -10.5h-12q-28 0 -39 24l-58 122h-62v-114
q0 -32 -31 -32h-9q-31 0 -31 32v312zM124 353q0 -63 21.5 -117t59.5 -94t89.5 -63t111.5 -23q61 0 113 23t90.5 63t60.5 94t22 117t-22 117t-60.5 94t-90.5 63t-113 23q-60 0 -111.5 -23t-89.5 -63t-59.5 -94t-21.5 -117zM51 353q0 76 28 142.5t76 116t112.5 78t138.5 28.5
q75 0 140.5 -28.5t114 -78t76.5 -116t28 -142.5t-28 -142.5t-76.5 -116t-114 -78t-140.5 -28.5q-74 0 -138.5 28.5t-112.5 78t-76 116t-28 142.5z" />
    <glyph glyph-name="macron" unicode="&#xaf;" horiz-adv-x="499" 
d="M155 784q-33 0 -33 32v7q0 32 33 32h189q33 0 33 -32v-7q0 -32 -33 -32h-189z" />
    <glyph glyph-name="degree" unicode="&#xb0;" horiz-adv-x="382" 
d="M191 496q31 0 52.5 21.5t21.5 52.5t-21.5 53t-52.5 22q-32 0 -53 -22t-21 -53t21 -52.5t53 -21.5zM191 422q-32 0 -59.5 11.5t-48 31.5t-32.5 47t-12 58q0 30 12 57t32.5 47.5t48 32t59.5 11.5q31 0 58.5 -11.5t48.5 -32t33 -47.5t12 -57q0 -31 -12 -58t-33 -47
t-48.5 -31.5t-58.5 -11.5z" />
    <glyph glyph-name="plusminus" unicode="&#xb1;" 
d="M522 -95q33 0 33 -33v-12q0 -33 -33 -33h-431q-33 0 -33 33v12q0 33 33 33h431zM75 246q-33 0 -33 33v12q0 33 33 33h191v213q0 33 33 33h16q33 0 33 -33v-213h190q33 0 33 -33v-12q0 -33 -33 -33h-190v-213q0 -33 -33 -33h-16q-33 0 -33 33v213h-191z" />
    <glyph glyph-name="uni00B2" unicode="&#xb2;" horiz-adv-x="357" 
d="M62 423q-15 0 -24 8.5t-9 27.5q0 42 15.5 72.5t39.5 53t51 39.5t51 33.5t39.5 35t15.5 43.5q0 28 -20 46.5t-52 18.5q-20 0 -36 -9t-26 -17q-13 -9 -23.5 -10.5t-21.5 9.5l-4 3q-11 11 -12 22.5t10 22.5q17 15 46 31.5t71 16.5q31 0 57 -9.5t45.5 -26.5t30.5 -41t11 -54
q0 -37 -15 -63t-37 -46t-48.5 -35.5t-49.5 -31t-38.5 -33.5t-17.5 -41h180q33 0 33 -31v-4q0 -31 -33 -31h-229z" />
    <glyph glyph-name="uni00B3" unicode="&#xb3;" horiz-adv-x="357" 
d="M165 413q-48 0 -78.5 15.5t-46.5 29.5q-24 17 -5 43l4 5q10 13 20 13.5t24 -7.5q11 -10 30.5 -20t48.5 -10q16 0 31 5.5t26 16t18 24t7 30.5t-7.5 30t-19.5 22t-27 14t-31 5h-13q-25 0 -32 19t9 40l71 82l16 16q4 4 9 8v2l-12 -2q-5 -1 -11.5 -1h-12.5h-109q-33 0 -33 32
v4q0 31 33 31h206q33 0 33 -24v-5q0 -11 -4 -19t-12 -18l-93 -108q22 -3 43 -12.5t37 -25t26 -38t10 -52.5q0 -29 -11.5 -55t-31.5 -46t-49 -32t-63 -12z" />
    <glyph glyph-name="acute" unicode="&#xb4;" horiz-adv-x="499" 
d="M201 755q-17 0 -23 11t3 26l40 67q13 23 39 23h29q21 0 26 -11.5t-8 -28.5l-49 -67q-16 -20 -40 -20h-17z" />
    <glyph glyph-name="mu" unicode="&#xb5;" horiz-adv-x="630" 
d="M85 473q0 33 33 33h31q32 0 32 -33v-269q0 -26 3.5 -49t14 -40t28.5 -27t48 -10q39 0 70 16t52.5 42t32.5 60.5t11 72.5v204q0 33 33 33h31q33 0 33 -33v-440q0 -33 -33 -33h-28q-33 0 -33 33v42v10.5t1 9.5q0 4 1 9h-2q-5 -9 -18 -28t-35.5 -38.5t-56 -34.5t-78.5 -15
q-25 0 -42 4.5t-28 10.5q-12 7 -20 16h-2q1 -14 3 -28q2 -12 3 -25.5t1 -24.5v-108q0 -33 -33 -33h-20q-33 0 -33 33v640z" />
    <glyph glyph-name="paragraph" unicode="&#xb6;" horiz-adv-x="591" 
d="M410 530q0 33 33 33h9q33 0 33 -33v-547q0 -33 -33 -33h-9q-33 0 -33 33v547zM273 241q-48 0 -91.5 18t-75.5 49.5t-51 74t-19 91.5t19 91.5t51 73.5t75.5 49t91.5 18h238q33 0 33 -33v-20q0 -33 -33 -33h-163v-637q0 -33 -33 -33h-9q-33 0 -33 33v258z" />
    <glyph glyph-name="periodcentered" unicode="&#xb7;" horiz-adv-x="231" 
d="M97 237q-32 0 -32 33v40q0 33 32 33h36q33 0 33 -33v-40q0 -33 -33 -33h-36z" />
    <glyph glyph-name="cedilla" unicode="&#xb8;" horiz-adv-x="499" 
d="M217 19h53l-14 -69q31 -4 51.5 -22.5t20.5 -50.5q0 -23 -9 -39t-23 -26t-32.5 -14.5t-37.5 -4.5q-7 0 -16 1t-17 4t-13.5 8.5t-5.5 15.5q0 14 5 22t13 8q7 0 12 -1.5t14 -1.5q17 0 30 7.5t13 24.5q0 15 -13.5 22.5t-33.5 9.5q-10 1 -15 8t-1 20z" />
    <glyph glyph-name="uni00B9" unicode="&#xb9;" horiz-adv-x="303" 
d="M63 423q-33 0 -33 31v4q0 31 29 31h64v249q0 13 1 18q0 4 1 8h-2q-1 -2 -3 -5q-2 -2 -5.5 -6t-8.5 -9l-21 -21q-17 -13 -32 2l-8 9q-20 22 3 45l65 64q17 17 41 17h11q33 0 33 -33v-338h59q33 0 33 -31v-4q0 -31 -33 -31h-194z" />
    <glyph glyph-name="ordmasculine" unicode="&#xba;" horiz-adv-x="453" 
d="M104 265q-33 0 -33 27v4q0 26 33 26h246q33 0 33 -26v-4q0 -27 -33 -27h-246zM226 449q41 0 69.5 28.5t28.5 74.5q0 45 -28.5 73t-69.5 28t-69.5 -28t-28.5 -73q0 -46 28.5 -74.5t69.5 -28.5zM226 384q-35 0 -66.5 12.5t-54.5 35t-36.5 53t-13.5 67.5q0 36 13.5 66
t36.5 52t54.5 34.5t66.5 12.5q36 0 67 -12.5t54 -34.5t36.5 -52t13.5 -66q0 -37 -13.5 -67.5t-36.5 -53t-54 -35t-67 -12.5z" />
    <glyph glyph-name="guillemotright" unicode="&#xbb;" horiz-adv-x="523" 
d="M81 77q-21 0 -26.5 11.5t7.5 28.5l131 165l-131 166q-14 17 -9 28.5t25 11.5h24q24 0 40 -19l130 -164q20 -23 0 -46l-130 -163q-16 -19 -40 -19h-21zM395 282l-131 166q-14 17 -9 28.5t25 11.5h24q24 0 40 -19l130 -164q18 -23 0 -46l-130 -163q-16 -19 -40 -19h-21
q-21 0 -26.5 11.5t7.5 28.5z" />
    <glyph glyph-name="onequarter" unicode="&#xbc;" horiz-adv-x="941" 
d="M82 270q-33 0 -33 31v4q0 31 29 31h64v249q0 13 1 18q0 4 1 8h-2q-1 -2 -3 -5q-2 -2 -5.5 -6t-8.5 -9l-21 -21q-17 -13 -32 2l-8 9q-20 22 3 45l65 64q17 17 41 17h11q33 0 33 -33v-338h59q33 0 33 -31v-4q0 -31 -33 -31h-194zM339 25q-12 -25 -39 -25h-12
q-17 0 -21.5 11t3.5 28l306 643q11 24 39 24h11q17 0 21.5 -10.5t-3.5 -28.5zM768 173v123q0 10 0.5 20.5t1.5 18.5q1 10 2 19h-2q-5 -8 -9 -16q-5 -7 -10 -15.5t-11 -16.5l-98 -131v-2h126zM801 0q-33 0 -33 33v74h-174q-33 0 -33 25v9q0 11 2.5 18t9.5 16l174 241
q14 21 40 21h22q33 0 33 -33v-231h35q29 0 29 -31v-4q0 -31 -29 -31h-35v-74q0 -33 -33 -33h-8z" />
    <glyph glyph-name="onehalf" unicode="&#xbd;" horiz-adv-x="926" 
d="M80 270q-33 0 -33 31v4q0 31 29 31h64v249q0 13 1 18q0 4 1 8h-2q-1 -2 -3 -5q-2 -2 -5.5 -6t-8.5 -9l-21 -21q-17 -13 -32 2l-8 9q-20 22 3 45l65 64q17 17 41 17h11q33 0 33 -33v-338h59q33 0 33 -31v-4q0 -31 -33 -31h-194zM338 25q-12 -25 -39 -25h-12
q-17 0 -21.5 11t3.5 28l306 643q11 24 39 24h11q17 0 21.5 -10.5t-3.5 -28.5zM621 0q-15 0 -24 8.5t-9 27.5q0 42 15.5 72.5t39.5 53t51 39.5t51 33.5t39.5 35t15.5 43.5q0 28 -20 46.5t-52 18.5q-20 0 -36 -9t-26 -17q-13 -9 -23.5 -10.5t-21.5 9.5l-4 3q-11 11 -12 22.5
t10 22.5q17 15 46 31.5t71 16.5q31 0 57 -9.5t45.5 -26.5t30.5 -41t11 -54q0 -37 -15 -63t-37 -46t-48.5 -35.5t-49.5 -31t-39 -33t-17 -41.5h180q33 0 33 -31v-4q0 -31 -33 -31h-229z" />
    <glyph glyph-name="threequarters" unicode="&#xbe;" horiz-adv-x="956" 
d="M354 25q-12 -25 -39 -25h-12q-17 0 -21.5 11t3.5 28l306 643q11 24 39 24h11q17 0 21.5 -10.5t-3.5 -28.5zM181 260q-48 0 -78.5 15.5t-46.5 29.5q-24 17 -5 43l4 5q10 13 20 13.5t24 -7.5q11 -10 30.5 -20t48.5 -10q16 0 31 5.5t26 16t18 24t7 30.5t-7.5 30t-19.5 22
t-27 14t-31 5h-13q-25 0 -32 19t9 40l71 82l16 16q4 4 9 8v2l-12 -2q-5 -1 -11.5 -1h-12.5h-109q-33 0 -33 32v4q0 31 33 31h206q33 0 33 -24v-5q0 -11 -4 -19t-12 -18l-93 -108q22 -3 43 -12.5t37 -25t26 -38t10 -52.5q0 -29 -11.5 -55t-31.5 -46t-49 -32t-63 -12zM784 173
v123q0 10 0.5 20.5t1.5 18.5q1 10 2 19h-2q-5 -8 -9 -16q-5 -7 -10 -15.5t-11 -16.5l-98 -131v-2h126zM817 0q-33 0 -33 33v74h-174q-33 0 -33 25v9q0 11 2.5 18t9.5 16l174 241q14 21 40 21h22q33 0 33 -33v-231h35q29 0 29 -31v-4q0 -31 -29 -31h-35v-74q0 -33 -33 -33h-8
z" />
    <glyph glyph-name="questiondown" unicode="&#xbf;" horiz-adv-x="460" 
d="M333 441q0 -33 -33 -33h-35q-33 0 -33 33v32q0 33 33 33h35q33 0 33 -33v-32zM297 312q33 0 33 -33v-20q0 -35 -12.5 -61.5t-31.5 -48t-41 -40.5t-41 -39t-31.5 -42.5t-12.5 -51.5q0 -21 8.5 -39t24 -31.5t36.5 -21t46 -7.5q28 0 50.5 8.5t36.5 16.5q14 7 26.5 5.5
t20.5 -14.5l13 -18q19 -28 -6 -45q-21 -14 -59 -29t-89 -15q-43 0 -81 13t-66.5 37t-45 57.5t-16.5 75.5q0 40 12.5 69.5t31.5 53t41 42.5t41.5 39t33.5 42t16 51l1 21q4 25 32 25h29z" />
    <glyph glyph-name="Agrave" unicode="&#xc0;" horiz-adv-x="621" 
d="M296 755q-14 0 -23 4.5t-17 15.5l-49 67q-13 17 -8.5 28.5t25.5 11.5h30q26 0 39 -23l39 -68q8 -14 4.5 -25t-20.5 -11h-20zM417 285l-78 224q-5 14 -9.5 30.5t-8.5 32.5q-4 18 -9 37h-2q-6 -19 -10 -37q-5 -16 -9 -32.5t-9 -30.5l-79 -224h214zM250 679q9 27 37 27h48
q28 0 37 -27l232 -641q6 -17 -1.5 -27.5t-25.5 -10.5h-34q-28 0 -37 27l-63 176h-266l-62 -176q-8 -27 -36 -27h-34q-19 0 -26 10.5t-1 27.5z" />
    <glyph glyph-name="Aacute" unicode="&#xc1;" horiz-adv-x="621" 
d="M307 755q-17 0 -23 11t3 26l40 67q13 23 39 23h29q21 0 26 -11.5t-8 -28.5l-49 -67q-16 -20 -40 -20h-17zM417 285l-78 224q-5 14 -9.5 30.5t-8.5 32.5q-4 18 -9 37h-2q-6 -19 -10 -37q-5 -16 -9 -32.5t-9 -30.5l-79 -224h214zM250 679q9 27 37 27h48q28 0 37 -27
l232 -641q6 -17 -1.5 -27.5t-25.5 -10.5h-34q-28 0 -37 27l-63 176h-266l-62 -176q-8 -27 -36 -27h-34q-19 0 -26 10.5t-1 27.5z" />
    <glyph glyph-name="Acircumflex" unicode="&#xc2;" horiz-adv-x="621" 
d="M215 755q-18 0 -22.5 11.5t6.5 28.5l46 65q15 22 41 22h49q26 0 40 -22l47 -65q11 -17 6.5 -28.5t-21.5 -11.5h-22q-14 0 -20.5 5t-14.5 17l-39 58h-2l-39 -58q-7 -12 -14 -17t-21 -5h-20zM417 285l-78 224q-5 14 -9.5 30.5t-8.5 32.5q-4 18 -9 37h-2q-6 -19 -10 -37
q-5 -16 -9 -32.5t-9 -30.5l-79 -224h214zM250 679q9 27 37 27h48q28 0 37 -27l232 -641q6 -17 -1.5 -27.5t-25.5 -10.5h-34q-28 0 -37 27l-63 176h-266l-62 -176q-8 -27 -36 -27h-34q-19 0 -26 10.5t-1 27.5z" />
    <glyph glyph-name="Atilde" unicode="&#xc3;" horiz-adv-x="621" 
d="M174 756q-29 0 -29 32q0 41 26 68t68 27q27 0 45 -10.5t32 -23.5t26.5 -23.5t29.5 -10.5q18 0 27 13.5t10 31.5q2 20 30 20h8q29 0 29 -28q0 -45 -25.5 -72t-68.5 -27q-27 0 -45 10.5t-32 23.5t-27 23.5t-29 10.5q-19 0 -28 -13.5t-10 -31.5q-3 -20 -29 -20h-8zM417 285
l-78 224q-5 14 -9.5 30.5t-8.5 32.5q-4 18 -9 37h-2q-6 -19 -10 -37q-5 -16 -9 -32.5t-9 -30.5l-79 -224h214zM250 679q9 27 37 27h48q28 0 37 -27l232 -641q6 -17 -1.5 -27.5t-25.5 -10.5h-34q-28 0 -37 27l-63 176h-266l-62 -176q-8 -27 -36 -27h-34q-19 0 -26 10.5
t-1 27.5z" />
    <glyph glyph-name="Adieresis" unicode="&#xc4;" horiz-adv-x="621" 
d="M220 781q-33 0 -33 33v35q0 33 33 33h14q33 0 33 -33v-35q0 -33 -33 -33h-14zM387 781q-33 0 -33 33v35q0 33 33 33h14q33 0 33 -33v-35q0 -33 -33 -33h-14zM417 285l-78 224q-5 14 -9.5 30.5t-8.5 32.5q-4 18 -9 37h-2q-6 -19 -10 -37q-5 -16 -9 -32.5t-9 -30.5
l-79 -224h214zM250 679q9 27 37 27h48q28 0 37 -27l232 -641q6 -17 -1.5 -27.5t-25.5 -10.5h-34q-28 0 -37 27l-63 176h-266l-62 -176q-8 -27 -36 -27h-34q-19 0 -26 10.5t-1 27.5z" />
    <glyph glyph-name="Aring" unicode="&#xc5;" horiz-adv-x="621" 
d="M311 784q14 0 23.5 9.5t9.5 23.5q0 16 -9.5 25.5t-23.5 9.5q-15 0 -24 -9.5t-9 -25.5q0 -14 9 -23.5t24 -9.5zM311 743q-34 0 -59.5 19.5t-25.5 54.5t25.5 55t59.5 20q33 0 59 -20t26 -55t-26 -54.5t-59 -19.5zM417 285l-78 224q-5 14 -9.5 30.5t-8.5 32.5q-4 18 -9 37
h-2q-6 -19 -10 -37q-5 -16 -9 -32.5t-9 -30.5l-79 -224h214zM250 679q9 27 37 27h48q28 0 37 -27l232 -641q6 -17 -1.5 -27.5t-25.5 -10.5h-34q-28 0 -37 27l-63 176h-266l-62 -176q-8 -27 -36 -27h-34q-19 0 -26 10.5t-1 27.5z" />
    <glyph glyph-name="AE" unicode="&#xc6;" horiz-adv-x="859" 
d="M395 396v224h-47l-90 -224h137zM278 681q10 25 38 25h456q33 0 33 -33v-20q0 -33 -33 -33h-279v-221h221q33 0 33 -33v-20q0 -33 -33 -33h-221v-227h296q33 0 33 -33v-20q0 -33 -33 -33h-361q-33 0 -33 33v281h-170l-115 -288q-10 -26 -38 -26h-34q-18 0 -25.5 10.5
t0.5 27.5z" />
    <glyph glyph-name="Ccedilla" unicode="&#xc7;" horiz-adv-x="709" 
d="M368 -10q-74 7 -133 38t-101 79.5t-64.5 112.5t-22.5 137q0 77 26.5 143t74 114.5t113.5 76t145 27.5q45 0 82.5 -8t66.5 -19t50.5 -23.5t34.5 -22.5q23 -18 6 -46l-13 -20q-17 -26 -46 -8q-11 7 -28 17t-39.5 18.5t-50 14.5t-59.5 6q-62 0 -110 -21t-82 -57.5
t-51.5 -85.5t-17.5 -105t18 -107t52 -89t82.5 -60.5t109.5 -22.5q35 0 65 7.5t54.5 18t42.5 22.5t30 21q27 21 46 -4l15 -20q19 -25 -5 -46q-13 -11 -34.5 -26t-51.5 -28.5t-68 -24t-83 -11.5l-8 -38q31 -4 51.5 -22.5t20.5 -50.5q0 -23 -9 -39t-23 -26t-32.5 -14.5
t-37.5 -4.5q-7 0 -16 1t-17 4t-13.5 8.5t-5.5 15.5q0 14 5 22t13 8q7 0 12 -1.5t14 -1.5q17 0 30 7.5t13 24.5q0 15 -13.5 22.5t-33.5 9.5q-10 1 -15 8t-1 20z" />
    <glyph glyph-name="Egrave" unicode="&#xc8;" horiz-adv-x="555" 
d="M291 755q-14 0 -23 4.5t-17 15.5l-49 67q-13 17 -8.5 28.5t25.5 11.5h30q26 0 39 -23l39 -68q8 -14 4.5 -25t-20.5 -11h-20zM90 673q0 33 33 33h344q33 0 33 -33v-20q0 -33 -33 -33h-279v-221h221q33 0 33 -33v-20q0 -33 -33 -33h-221v-227h296q33 0 33 -33v-20
q0 -33 -33 -33h-361q-33 0 -33 33v640z" />
    <glyph glyph-name="Eacute" unicode="&#xc9;" horiz-adv-x="555" 
d="M90 673q0 33 33 33h344q33 0 33 -33v-20q0 -33 -33 -33h-279v-221h221q33 0 33 -33v-20q0 -33 -33 -33h-221v-227h296q33 0 33 -33v-20q0 -33 -33 -33h-361q-33 0 -33 33v640zM302 755q-17 0 -23 11t3 26l40 67q13 23 39 23h29q21 0 26 -11.5t-8 -28.5l-49 -67
q-16 -20 -40 -20h-17z" />
    <glyph glyph-name="Ecircumflex" unicode="&#xca;" horiz-adv-x="555" 
d="M90 673q0 33 33 33h344q33 0 33 -33v-20q0 -33 -33 -33h-279v-221h221q33 0 33 -33v-20q0 -33 -33 -33h-221v-227h296q33 0 33 -33v-20q0 -33 -33 -33h-361q-33 0 -33 33v640zM210 755q-18 0 -22.5 11.5t6.5 28.5l46 65q15 22 41 22h49q26 0 40 -22l47 -65
q11 -17 6.5 -28.5t-21.5 -11.5h-22q-14 0 -20.5 5t-14.5 17l-39 58h-2l-39 -58q-7 -12 -14 -17t-21 -5h-20z" />
    <glyph glyph-name="Edieresis" unicode="&#xcb;" horiz-adv-x="555" 
d="M90 673q0 33 33 33h344q33 0 33 -33v-20q0 -33 -33 -33h-279v-221h221q33 0 33 -33v-20q0 -33 -33 -33h-221v-227h296q33 0 33 -33v-20q0 -33 -33 -33h-361q-33 0 -33 33v640zM215 781q-33 0 -33 33v35q0 33 33 33h14q33 0 33 -33v-35q0 -33 -33 -33h-14zM382 781
q-33 0 -33 33v35q0 33 33 33h14q33 0 33 -33v-35q0 -33 -33 -33h-14z" />
    <glyph glyph-name="Igrave" unicode="&#xcc;" horiz-adv-x="278" 
d="M126 755q-14 0 -23 4.5t-17 15.5l-49 67q-13 17 -8.5 28.5t25.5 11.5h30q26 0 39 -23l39 -68q8 -14 4.5 -25t-20.5 -11h-20zM90 673q0 33 33 33h32q33 0 33 -33v-640q0 -33 -33 -33h-32q-33 0 -33 33v640z" />
    <glyph glyph-name="Iacute" unicode="&#xcd;" horiz-adv-x="278" 
d="M137 755q-17 0 -23 11t3 26l40 67q13 23 39 23h29q21 0 26 -11.5t-8 -28.5l-49 -67q-16 -20 -40 -20h-17zM90 673q0 33 33 33h32q33 0 33 -33v-640q0 -33 -33 -33h-32q-33 0 -33 33v640z" />
    <glyph glyph-name="Icircumflex" unicode="&#xce;" horiz-adv-x="278" 
d="M45 755q-18 0 -22.5 11.5t6.5 28.5l46 65q15 22 41 22h49q26 0 40 -22l47 -65q11 -17 6.5 -28.5t-21.5 -11.5h-22q-14 0 -20.5 5t-14.5 17l-39 58h-2l-39 -58q-7 -12 -14 -17t-21 -5h-20zM90 673q0 33 33 33h32q33 0 33 -33v-640q0 -33 -33 -33h-32q-33 0 -33 33v640z
" />
    <glyph glyph-name="Idieresis" unicode="&#xcf;" horiz-adv-x="278" 
d="M50 781q-33 0 -33 33v35q0 33 33 33h14q33 0 33 -33v-35q0 -33 -33 -33h-14zM217 781q-33 0 -33 33v35q0 33 33 33h14q33 0 33 -33v-35q0 -33 -33 -33h-14zM90 673q0 33 33 33h32q33 0 33 -33v-640q0 -33 -33 -33h-32q-33 0 -33 33v640z" />
    <glyph glyph-name="Eth" unicode="&#xd0;" horiz-adv-x="730" 
d="M318 86q60 0 108 17.5t82.5 51.5t53 84t18.5 115t-18.5 114.5t-53 83.5t-83 51t-107.5 17h-129v-226h117q33 0 33 -33v-16q0 -33 -32 -33h-118v-226h129zM91 312h-26q-33 0 -33 33v16q0 33 22 33h37v279q0 33 33 33h201q81 0 146.5 -23.5t112.5 -68.5t72.5 -110.5
t25.5 -149.5t-25.5 -150t-72.5 -111t-112.5 -69t-146.5 -24h-201q-33 0 -33 33v279z" />
    <glyph glyph-name="Ntilde" unicode="&#xd1;" horiz-adv-x="744" 
d="M236 756q-29 0 -29 32q0 41 26 68t68 27q27 0 45 -10.5t32 -23.5t26.5 -23.5t29.5 -10.5q18 0 27 13.5t10 31.5q2 20 30 20h8q29 0 29 -28q0 -45 -25.5 -72t-68.5 -27q-27 0 -45 10.5t-32 23.5t-27 23.5t-29 10.5q-19 0 -28 -13.5t-10 -31.5q-3 -20 -29 -20h-8zM90 673
q0 33 33 33h38q26 0 40 -22l301 -437q9 -14 19.5 -31.5t18.5 -33.5q10 -18 20 -37h2q-2 18 -3 36q-2 16 -2.5 33.5t-0.5 32.5v426q0 33 33 33h32q33 0 33 -33v-640q0 -33 -33 -33h-38q-27 0 -39 22l-302 436q-10 14 -20 32t-18 34q-10 18 -20 37h-2q1 -19 3 -37
q1 -16 2 -33.5t1 -32.5v-425q0 -33 -33 -33h-32q-33 0 -33 33v640z" />
    <glyph glyph-name="Ograve" unicode="&#xd2;" horiz-adv-x="815" 
d="M393 755q-14 0 -23 4.5t-17 15.5l-49 67q-13 17 -8.5 28.5t25.5 11.5h30q26 0 39 -23l39 -68q8 -14 4.5 -25t-20.5 -11h-20zM147 358q0 -59 19.5 -110t54.5 -88.5t83 -59t104 -21.5t104 21.5t82.5 59t54 88.5t19.5 110q0 57 -19.5 106.5t-54 85.5t-82.5 56.5t-104 20.5
t-104 -20.5t-83 -56.5t-54.5 -85.5t-19.5 -106.5zM45 358q0 76 27 142t75.5 114.5t115 76t145.5 27.5t145.5 -27.5t114.5 -76t75 -114.5t27 -142q0 -78 -27 -145.5t-75 -117.5t-114.5 -78.5t-145.5 -28.5t-145.5 28.5t-115 78.5t-75.5 117.5t-27 145.5z" />
    <glyph glyph-name="Oacute" unicode="&#xd3;" horiz-adv-x="815" 
d="M147 358q0 -59 19.5 -110t54.5 -88.5t83 -59t104 -21.5t104 21.5t82.5 59t54 88.5t19.5 110q0 57 -19.5 106.5t-54 85.5t-82.5 56.5t-104 20.5t-104 -20.5t-83 -56.5t-54.5 -85.5t-19.5 -106.5zM45 358q0 76 27 142t75.5 114.5t115 76t145.5 27.5t145.5 -27.5t114.5 -76
t75 -114.5t27 -142q0 -78 -27 -145.5t-75 -117.5t-114.5 -78.5t-145.5 -28.5t-145.5 28.5t-115 78.5t-75.5 117.5t-27 145.5zM404 755q-17 0 -23 11t3 26l40 67q13 23 39 23h29q21 0 26 -11.5t-8 -28.5l-49 -67q-16 -20 -40 -20h-17z" />
    <glyph glyph-name="Ocircumflex" unicode="&#xd4;" horiz-adv-x="815" 
d="M147 358q0 -59 19.5 -110t54.5 -88.5t83 -59t104 -21.5t104 21.5t82.5 59t54 88.5t19.5 110q0 57 -19.5 106.5t-54 85.5t-82.5 56.5t-104 20.5t-104 -20.5t-83 -56.5t-54.5 -85.5t-19.5 -106.5zM45 358q0 76 27 142t75.5 114.5t115 76t145.5 27.5t145.5 -27.5t114.5 -76
t75 -114.5t27 -142q0 -78 -27 -145.5t-75 -117.5t-114.5 -78.5t-145.5 -28.5t-145.5 28.5t-115 78.5t-75.5 117.5t-27 145.5zM312 755q-18 0 -22.5 11.5t6.5 28.5l46 65q15 22 41 22h49q26 0 40 -22l47 -65q11 -17 6.5 -28.5t-21.5 -11.5h-22q-14 0 -20.5 5t-14.5 17l-39 58
h-2l-39 -58q-7 -12 -14 -17t-21 -5h-20z" />
    <glyph glyph-name="Otilde" unicode="&#xd5;" horiz-adv-x="815" 
d="M271 756q-29 0 -29 32q0 41 26 68t68 27q27 0 45 -10.5t32 -23.5t26.5 -23.5t29.5 -10.5q18 0 27 13.5t10 31.5q2 20 30 20h8q29 0 29 -28q0 -45 -25.5 -72t-68.5 -27q-27 0 -45 10.5t-32 23.5t-27 23.5t-29 10.5q-19 0 -28 -13.5t-10 -31.5q-3 -20 -29 -20h-8zM147 358
q0 -59 19.5 -110t54.5 -88.5t83 -59t104 -21.5t104 21.5t82.5 59t54 88.5t19.5 110q0 57 -19.5 106.5t-54 85.5t-82.5 56.5t-104 20.5t-104 -20.5t-83 -56.5t-54.5 -85.5t-19.5 -106.5zM45 358q0 76 27 142t75.5 114.5t115 76t145.5 27.5t145.5 -27.5t114.5 -76t75 -114.5
t27 -142q0 -78 -27 -145.5t-75 -117.5t-114.5 -78.5t-145.5 -28.5t-145.5 28.5t-115 78.5t-75.5 117.5t-27 145.5z" />
    <glyph glyph-name="Odieresis" unicode="&#xd6;" horiz-adv-x="815" 
d="M147 358q0 -59 19.5 -110t54.5 -88.5t83 -59t104 -21.5t104 21.5t82.5 59t54 88.5t19.5 110q0 57 -19.5 106.5t-54 85.5t-82.5 56.5t-104 20.5t-104 -20.5t-83 -56.5t-54.5 -85.5t-19.5 -106.5zM45 358q0 76 27 142t75.5 114.5t115 76t145.5 27.5t145.5 -27.5t114.5 -76
t75 -114.5t27 -142q0 -78 -27 -145.5t-75 -117.5t-114.5 -78.5t-145.5 -28.5t-145.5 28.5t-115 78.5t-75.5 117.5t-27 145.5zM317 781q-33 0 -33 33v35q0 33 33 33h14q33 0 33 -33v-35q0 -33 -33 -33h-14zM484 781q-33 0 -33 33v35q0 33 33 33h14q33 0 33 -33v-35
q0 -33 -33 -33h-14z" />
    <glyph glyph-name="multiply" unicode="&#xd7;" 
d="M69 33q-23 21 -1 46l184 206l-184 206q-22 25 1 46l9 9q24 24 46 -1l182 -202l182 202q22 25 47 1l8 -9q23 -21 1 -46l-185 -206l185 -206q22 -25 -1 -46l-8 -9q-25 -24 -47 1l-182 202l-182 -202q-22 -25 -46 -1z" />
    <glyph glyph-name="Oslash" unicode="&#xd8;" horiz-adv-x="814" 
d="M272 119q60 -40 135 -40q54 0 102 21t83 58.5t55.5 88.5t20.5 110q0 61 -22.5 112t-60.5 86zM537 591q-28 17 -61 26.5t-68 9.5q-54 0 -101.5 -20.5t-83 -56.5t-56 -85.5t-20.5 -107.5q0 -60 22 -111.5t57 -87.5zM168 77q-57 51 -90 123t-33 157q0 76 28 142t77 115
t115 76.5t143 27.5q51 0 97.5 -13t87.5 -37l26 38q20 26 45 9q23 -18 10 -37l-31 -43q59 -50 93 -121t34 -157q0 -77 -28 -144.5t-76.5 -117.5t-115 -78.5t-142.5 -28.5q-54 0 -101.5 14t-89.5 40l-29 -41q-20 -26 -44 -9q-25 17 -9 39z" />
    <glyph glyph-name="Ugrave" unicode="&#xd9;" horiz-adv-x="717" 
d="M344 755q-14 0 -23 4.5t-17 15.5l-49 67q-13 17 -8.5 28.5t25.5 11.5h30q26 0 39 -23l39 -68q8 -14 4.5 -25t-20.5 -11h-20zM81 673q0 33 33 33h33q32 0 32 -33v-422q0 -81 49 -126.5t130 -45.5t130 45.5t49 127.5v421q0 33 33 33h33q33 0 33 -33v-423q0 -59 -20 -107
t-56.5 -82.5t-87.5 -53.5t-113 -19t-113.5 19t-88 53.5t-56.5 82.5t-20 107v423z" />
    <glyph glyph-name="Uacute" unicode="&#xda;" horiz-adv-x="717" 
d="M81 673q0 33 33 33h33q32 0 32 -33v-422q0 -81 49 -126.5t130 -45.5t130 45.5t49 127.5v421q0 33 33 33h33q33 0 33 -33v-423q0 -59 -20 -107t-56.5 -82.5t-87.5 -53.5t-113 -19t-113.5 19t-88 53.5t-56.5 82.5t-20 107v423zM354 755q-17 0 -23 11t3 26l40 67
q13 23 39 23h29q21 0 26 -11.5t-8 -28.5l-49 -67q-16 -20 -40 -20h-17z" />
    <glyph glyph-name="Ucircumflex" unicode="&#xdb;" horiz-adv-x="717" 
d="M81 673q0 33 33 33h33q32 0 32 -33v-422q0 -81 49 -126.5t130 -45.5t130 45.5t49 127.5v421q0 33 33 33h33q33 0 33 -33v-423q0 -59 -20 -107t-56.5 -82.5t-87.5 -53.5t-113 -19t-113.5 19t-88 53.5t-56.5 82.5t-20 107v423zM262 755q-18 0 -22.5 11.5t6.5 28.5l46 65
q15 22 41 22h49q26 0 40 -22l47 -65q11 -17 6.5 -28.5t-21.5 -11.5h-22q-14 0 -20.5 5t-14.5 17l-39 58h-2l-39 -58q-7 -12 -14 -17t-21 -5h-20z" />
    <glyph glyph-name="Udieresis" unicode="&#xdc;" horiz-adv-x="717" 
d="M81 673q0 33 33 33h33q32 0 32 -33v-422q0 -81 49 -126.5t130 -45.5t130 45.5t49 127.5v421q0 33 33 33h33q33 0 33 -33v-423q0 -59 -20 -107t-56.5 -82.5t-87.5 -53.5t-113 -19t-113.5 19t-88 53.5t-56.5 82.5t-20 107v423zM268 781q-33 0 -33 33v35q0 33 33 33h14
q33 0 33 -33v-35q0 -33 -33 -33h-14zM435 781q-33 0 -33 33v35q0 33 33 33h14q33 0 33 -33v-35q0 -33 -33 -33h-14z" />
    <glyph glyph-name="Yacute" unicode="&#xdd;" horiz-adv-x="567" 
d="M280 755q-17 0 -23 11t3 26l40 67q13 23 39 23h29q21 0 26 -11.5t-8 -28.5l-49 -67q-16 -20 -40 -20h-17zM234 299l-214 368q-10 17 -3.5 28t26.5 11h40q26 0 38 -23l119 -209q8 -15 15.5 -31t13.5 -29q7 -15 14 -29h2q6 14 13 29q6 13 14 29t16 31l118 209q11 23 38 23
h40q20 0 26.5 -11t-3.5 -28l-214 -368v-266q0 -33 -33 -33h-33q-33 0 -33 33v266z" />
    <glyph glyph-name="Thorn" unicode="&#xde;" horiz-adv-x="598" 
d="M332 227q64 0 100.5 37t36.5 101t-36.5 99.5t-99.5 35.5h-145v-273h144zM90 673q0 33 33 33h32q33 0 33 -32v-88h160q48 0 89 -15.5t70 -44.5t45.5 -70t16.5 -91t-16.5 -91.5t-46 -71t-70 -45.5t-89.5 -16h-159v-108q0 -33 -33 -33h-32q-33 0 -33 33v640z" />
    <glyph glyph-name="germandbls" unicode="&#xdf;" horiz-adv-x="582" 
d="M71 530q0 46 18.5 81t48.5 59t69 36t80 12q42 0 76.5 -12.5t60 -34.5t39.5 -51.5t14 -62.5q0 -36 -15.5 -61.5t-34.5 -45.5t-34.5 -38.5t-15.5 -40.5q0 -16 13 -30t33 -28.5t43 -30.5t43 -36t33 -44.5t13 -56.5q0 -38 -14 -66.5t-38 -47.5t-54.5 -28.5t-63.5 -9.5
q-42 0 -71 7t-45 13q-26 7 -26 37v19q0 36 31 28q16 -7 41.5 -13.5t57.5 -6.5q33 0 58.5 17t25.5 55q0 20 -13.5 37t-33 32t-43 30.5t-43 33t-33 38.5t-13.5 48q0 31 16 54t34.5 43.5t34.5 42t16 48.5q0 29 -24.5 53.5t-71.5 24.5q-22 0 -42.5 -7t-37 -20.5t-26.5 -34.5
t-10 -49v-490q0 -33 -32 -33h-31q-33 0 -33 33v497z" />
    <glyph glyph-name="agrave" unicode="&#xe0;" horiz-adv-x="517" 
d="M244 580q-14 0 -23 4.5t-17 15.5l-49 67q-13 17 -8.5 28.5t25.5 11.5h30q26 0 39 -23l39 -68q8 -14 4.5 -25t-20.5 -11h-20zM127 146q0 -30 23.5 -55.5t70.5 -25.5q32 0 57.5 14.5t43 38t27 52t9.5 56.5v22h-26q-27 0 -62 -2.5t-67 -12.5t-54 -30.5t-22 -56.5zM29 138
q0 39 15 67.5t40 47.5t56.5 31t65.5 18t66.5 8t58.5 2h26v13q0 31 -8.5 52.5t-23.5 34.5t-35 18.5t-43 5.5q-38 0 -67.5 -11t-46.5 -21q-29 -14 -45 12l-8 14q-16 30 11 45q23 13 64.5 28t99.5 15q95 0 147 -50.5t52 -147.5v-287q0 -33 -33 -33h-25q-33 0 -33 33v30v13t1 10
l2 8h-2q-15 -30 -38 -53q-20 -20 -51 -36.5t-76 -16.5q-33 0 -64 10t-54.5 29.5t-37.5 47t-14 63.5z" />
    <glyph glyph-name="aacute" unicode="&#xe1;" horiz-adv-x="517" 
d="M252 580q-17 0 -23 11t3 26l40 67q13 23 39 23h29q21 0 26 -11.5t-8 -28.5l-49 -67q-16 -20 -40 -20h-17zM127 146q0 -30 23.5 -55.5t70.5 -25.5q32 0 57.5 14.5t43 38t27 52t9.5 56.5v22h-26q-27 0 -62 -2.5t-67 -12.5t-54 -30.5t-22 -56.5zM29 138q0 39 15 67.5
t40 47.5t56.5 31t65.5 18t66.5 8t58.5 2h26v13q0 31 -8.5 52.5t-23.5 34.5t-35 18.5t-43 5.5q-38 0 -67.5 -11t-46.5 -21q-29 -14 -45 12l-8 14q-16 30 11 45q23 13 64.5 28t99.5 15q95 0 147 -50.5t52 -147.5v-287q0 -33 -33 -33h-25q-33 0 -33 33v30v13t1 10l2 8h-2
q-15 -30 -38 -53q-20 -20 -51 -36.5t-76 -16.5q-33 0 -64 10t-54.5 29.5t-37.5 47t-14 63.5z" />
    <glyph glyph-name="acircumflex" unicode="&#xe2;" horiz-adv-x="517" 
d="M161 580q-18 0 -22.5 11.5t6.5 28.5l46 65q15 22 41 22h49q26 0 40 -22l47 -65q11 -17 6.5 -28.5t-21.5 -11.5h-22q-14 0 -20.5 5t-14.5 17l-39 58h-2l-39 -58q-7 -12 -14 -17t-21 -5h-20zM127 146q0 -30 23.5 -55.5t70.5 -25.5q32 0 57.5 14.5t43 38t27 52t9.5 56.5v22
h-26q-27 0 -62 -2.5t-67 -12.5t-54 -30.5t-22 -56.5zM29 138q0 39 15 67.5t40 47.5t56.5 31t65.5 18t66.5 8t58.5 2h26v13q0 31 -8.5 52.5t-23.5 34.5t-35 18.5t-43 5.5q-38 0 -67.5 -11t-46.5 -21q-29 -14 -45 12l-8 14q-16 30 11 45q23 13 64.5 28t99.5 15q95 0 147 -50.5
t52 -147.5v-287q0 -33 -33 -33h-25q-33 0 -33 33v30v13t1 10l2 8h-2q-15 -30 -38 -53q-20 -20 -51 -36.5t-76 -16.5q-33 0 -64 10t-54.5 29.5t-37.5 47t-14 63.5z" />
    <glyph glyph-name="atilde" unicode="&#xe3;" horiz-adv-x="517" 
d="M120 581q-29 0 -29 32q0 41 26 68t68 27q27 0 45 -10.5t32 -23.5t26.5 -23.5t29.5 -10.5q18 0 27 13.5t10 31.5q2 20 30 20h8q29 0 29 -28q0 -45 -25.5 -72t-68.5 -27q-27 0 -45 10.5t-32 23.5t-27 23.5t-29 10.5q-19 0 -28 -13.5t-10 -31.5q-3 -20 -29 -20h-8zM127 146
q0 -30 23.5 -55.5t70.5 -25.5q32 0 57.5 14.5t43 38t27 52t9.5 56.5v22h-26q-27 0 -62 -2.5t-67 -12.5t-54 -30.5t-22 -56.5zM29 138q0 39 15 67.5t40 47.5t56.5 31t65.5 18t66.5 8t58.5 2h26v13q0 31 -8.5 52.5t-23.5 34.5t-35 18.5t-43 5.5q-38 0 -67.5 -11t-46.5 -21
q-29 -14 -45 12l-8 14q-16 30 11 45q23 13 64.5 28t99.5 15q95 0 147 -50.5t52 -147.5v-287q0 -33 -33 -33h-25q-33 0 -33 33v30v13t1 10l2 8h-2q-15 -30 -38 -53q-20 -20 -51 -36.5t-76 -16.5q-33 0 -64 10t-54.5 29.5t-37.5 47t-14 63.5z" />
    <glyph glyph-name="adieresis" unicode="&#xe4;" horiz-adv-x="517" 
d="M166 606q-33 0 -33 33v35q0 33 33 33h14q33 0 33 -33v-35q0 -33 -33 -33h-14zM333 606q-33 0 -33 33v35q0 33 33 33h14q33 0 33 -33v-35q0 -33 -33 -33h-14zM127 146q0 -30 23.5 -55.5t70.5 -25.5q32 0 57.5 14.5t43 38t27 52t9.5 56.5v22h-26q-27 0 -62 -2.5t-67 -12.5
t-54 -30.5t-22 -56.5zM29 138q0 39 15 67.5t40 47.5t56.5 31t65.5 18t66.5 8t58.5 2h26v13q0 31 -8.5 52.5t-23.5 34.5t-35 18.5t-43 5.5q-38 0 -67.5 -11t-46.5 -21q-29 -14 -45 12l-8 14q-16 30 11 45q23 13 64.5 28t99.5 15q95 0 147 -50.5t52 -147.5v-287q0 -33 -33 -33
h-25q-33 0 -33 33v30v13t1 10l2 8h-2q-15 -30 -38 -53q-20 -20 -51 -36.5t-76 -16.5q-33 0 -64 10t-54.5 29.5t-37.5 47t-14 63.5z" />
    <glyph glyph-name="aring" unicode="&#xe5;" horiz-adv-x="517" 
d="M257 609q14 0 23.5 9.5t9.5 23.5q0 16 -9.5 25.5t-23.5 9.5q-15 0 -24 -9.5t-9 -25.5q0 -14 9 -23.5t24 -9.5zM257 568q-34 0 -59.5 19.5t-25.5 54.5t25.5 55t59.5 20q33 0 59 -20t26 -55t-26 -54.5t-59 -19.5zM127 146q0 -30 23.5 -55.5t70.5 -25.5q32 0 57.5 14.5
t43 38t27 52t9.5 56.5v22h-26q-27 0 -62 -2.5t-67 -12.5t-54 -30.5t-22 -56.5zM29 138q0 39 15 67.5t40 47.5t56.5 31t65.5 18t66.5 8t58.5 2h26v13q0 31 -8.5 52.5t-23.5 34.5t-35 18.5t-43 5.5q-38 0 -67.5 -11t-46.5 -21q-29 -14 -45 12l-8 14q-16 30 11 45
q23 13 64.5 28t99.5 15q95 0 147 -50.5t52 -147.5v-287q0 -33 -33 -33h-25q-33 0 -33 33v30v13t1 10l2 8h-2q-15 -30 -38 -53q-20 -20 -51 -36.5t-76 -16.5q-33 0 -64 10t-54.5 29.5t-37.5 47t-14 63.5z" />
    <glyph glyph-name="ae" unicode="&#xe6;" horiz-adv-x="853" 
d="M129 147q0 -32 24 -56.5t72 -24.5q31 0 56 15t42 38t26.5 52t9.5 57v17h-47q-29 0 -61 -3t-59 -13.5t-45 -30t-18 -51.5zM719 310q-1 32 -11.5 56.5t-27 41t-37.5 25t-44 8.5q-57 0 -95 -34t-49 -97h264zM31 142q0 60 32.5 93.5t79.5 50t99 20.5t91 4h25v15
q0 62 -32 86.5t-82 24.5q-35 0 -64.5 -11t-46.5 -21q-29 -15 -45 12l-8 14q-7 14 -4.5 25.5t16.5 19.5q22 13 62 28t97 15q71 0 110 -24t58 -65h2q30 45 75.5 67t103.5 22q52 0 92.5 -18t68 -49.5t42 -75.5t14.5 -96q0 -13 -9.5 -23.5t-24.5 -10.5h-332q5 -86 52.5 -129.5
t116.5 -43.5q42 0 73 13.5t48 25.5q30 18 45 -10l8 -15q17 -28 -9 -44q-11 -8 -28 -17.5t-38.5 -17.5t-48 -13.5t-56.5 -5.5q-77 0 -132.5 33.5t-84.5 93.5h-2q-3 -10 -15 -31t-34.5 -42.5t-57.5 -37.5t-84 -16q-35 0 -66.5 10.5t-55 30t-37.5 48t-14 65.5z" />
    <glyph glyph-name="ccedilla" unicode="&#xe7;" horiz-adv-x="534" 
d="M266 -9q-51 7 -93 29t-72 56.5t-46.5 79.5t-16.5 97q0 56 20 104.5t56 84t85.5 56t108.5 20.5q32 0 58 -5.5t47 -13.5t36.5 -17.5t25.5 -17.5q13 -8 14 -20t-8 -25l-10 -15q-16 -25 -45 -8q-16 11 -44.5 24.5t-68.5 13.5q-38 0 -70.5 -13.5t-56 -37.5t-36.5 -57t-13 -72
t13 -72t37 -57.5t56.5 -38.5t71.5 -14q46 0 78.5 16t50.5 30q28 18 45 -9l8 -15q16 -27 -9 -44q-10 -8 -26 -18.5t-37 -19.5t-47.5 -16t-58.5 -8l-7 -38q31 -4 51.5 -22.5t20.5 -50.5q0 -23 -9 -39t-23 -26t-32.5 -14.5t-37.5 -4.5q-7 0 -16 1t-17 4t-13.5 8.5t-5.5 15.5
q0 14 5 22t13 8q7 0 12 -1.5t14 -1.5q17 0 30 7.5t13 24.5q0 15 -13.5 22.5t-33.5 9.5q-10 1 -15 8t-1 20z" />
    <glyph glyph-name="egrave" unicode="&#xe8;" horiz-adv-x="545" 
d="M278 580q-14 0 -23 4.5t-17 15.5l-49 67q-13 17 -8.5 28.5t25.5 11.5h30q26 0 39 -23l39 -68q8 -14 4.5 -25t-20.5 -11h-20zM412 307q-2 67 -37.5 101t-85.5 34q-56 0 -96.5 -35.5t-51.5 -99.5h271zM38 253q0 60 19.5 109t53 83.5t80 53.5t100.5 19q52 0 93 -18t68.5 -50
t42 -76t14.5 -97q0 -14 -9.5 -24t-24.5 -10h-338q2 -41 17 -73t39 -54t54.5 -33t64.5 -11q42 0 73 13.5t48 26.5q30 16 45 -11l9 -15q8 -13 5.5 -24.5t-15.5 -19.5q-11 -8 -28 -17.5t-38.5 -17.5t-48 -13.5t-56.5 -5.5q-60 0 -109 20.5t-84.5 56t-55 84t-19.5 104.5z" />
    <glyph glyph-name="eacute" unicode="&#xe9;" horiz-adv-x="545" 
d="M412 307q-2 67 -37.5 101t-85.5 34q-56 0 -96.5 -35.5t-51.5 -99.5h271zM38 253q0 60 19.5 109t53 83.5t80 53.5t100.5 19q52 0 93 -18t68.5 -50t42 -76t14.5 -97q0 -14 -9.5 -24t-24.5 -10h-338q2 -41 17 -73t39 -54t54.5 -33t64.5 -11q42 0 73 13.5t48 26.5
q30 16 45 -11l9 -15q8 -13 5.5 -24.5t-15.5 -19.5q-11 -8 -28 -17.5t-38.5 -17.5t-48 -13.5t-56.5 -5.5q-60 0 -109 20.5t-84.5 56t-55 84t-19.5 104.5zM287 580q-17 0 -23 11t3 26l40 67q13 23 39 23h29q21 0 26 -11.5t-8 -28.5l-49 -67q-16 -20 -40 -20h-17z" />
    <glyph glyph-name="ecircumflex" unicode="&#xea;" horiz-adv-x="545" 
d="M412 307q-2 67 -37.5 101t-85.5 34q-56 0 -96.5 -35.5t-51.5 -99.5h271zM38 253q0 60 19.5 109t53 83.5t80 53.5t100.5 19q52 0 93 -18t68.5 -50t42 -76t14.5 -97q0 -14 -9.5 -24t-24.5 -10h-338q2 -41 17 -73t39 -54t54.5 -33t64.5 -11q42 0 73 13.5t48 26.5
q30 16 45 -11l9 -15q8 -13 5.5 -24.5t-15.5 -19.5q-11 -8 -28 -17.5t-38.5 -17.5t-48 -13.5t-56.5 -5.5q-60 0 -109 20.5t-84.5 56t-55 84t-19.5 104.5zM195 580q-18 0 -22.5 11.5t6.5 28.5l46 65q15 22 41 22h49q26 0 40 -22l47 -65q11 -17 6.5 -28.5t-21.5 -11.5h-22
q-14 0 -20.5 5t-14.5 17l-39 58h-2l-39 -58q-7 -12 -14 -17t-21 -5h-20z" />
    <glyph glyph-name="edieresis" unicode="&#xeb;" horiz-adv-x="545" 
d="M412 307q-2 67 -37.5 101t-85.5 34q-56 0 -96.5 -35.5t-51.5 -99.5h271zM38 253q0 60 19.5 109t53 83.5t80 53.5t100.5 19q52 0 93 -18t68.5 -50t42 -76t14.5 -97q0 -14 -9.5 -24t-24.5 -10h-338q2 -41 17 -73t39 -54t54.5 -33t64.5 -11q42 0 73 13.5t48 26.5
q30 16 45 -11l9 -15q8 -13 5.5 -24.5t-15.5 -19.5q-11 -8 -28 -17.5t-38.5 -17.5t-48 -13.5t-56.5 -5.5q-60 0 -109 20.5t-84.5 56t-55 84t-19.5 104.5zM200 606q-33 0 -33 33v35q0 33 33 33h14q33 0 33 -33v-35q0 -33 -33 -33h-14zM367 606q-33 0 -33 33v35q0 33 33 33h14
q33 0 33 -33v-35q0 -33 -33 -33h-14z" />
    <glyph glyph-name="igrave" unicode="&#xec;" horiz-adv-x="237" 
d="M106 580q-14 0 -23 4.5t-17 15.5l-49 67q-13 17 -8.5 28.5t25.5 11.5h30q26 0 39 -23l39 -68q8 -14 4.5 -25t-20.5 -11h-20zM70 473q0 33 33 33h31q33 0 33 -33v-440q0 -33 -33 -33h-31q-33 0 -33 33v440z" />
    <glyph glyph-name="iacute" unicode="&#xed;" horiz-adv-x="237" 
d="M70 473q0 33 33 33h31q33 0 33 -33v-440q0 -33 -33 -33h-31q-33 0 -33 33v440zM116 580q-17 0 -23 11t3 26l40 67q13 23 39 23h29q21 0 26 -11.5t-8 -28.5l-49 -67q-16 -20 -40 -20h-17z" />
    <glyph glyph-name="icircumflex" unicode="&#xee;" horiz-adv-x="237" 
d="M70 473q0 33 33 33h31q33 0 33 -33v-440q0 -33 -33 -33h-31q-33 0 -33 33v440zM24 580q-18 0 -22.5 11.5t6.5 28.5l46 65q15 22 41 22h49q26 0 40 -22l47 -65q11 -17 6.5 -28.5t-21.5 -11.5h-22q-14 0 -20.5 5t-14.5 17l-39 58h-2l-39 -58q-7 -12 -14 -17t-21 -5h-20z
" />
    <glyph glyph-name="idieresis" unicode="&#xef;" horiz-adv-x="237" 
d="M70 473q0 33 33 33h31q33 0 33 -33v-440q0 -33 -33 -33h-31q-33 0 -33 33v440zM30 606q-33 0 -33 33v35q0 33 33 33h14q33 0 33 -33v-35q0 -33 -33 -33h-14zM197 606q-33 0 -33 33v35q0 33 33 33h14q33 0 33 -33v-35q0 -33 -33 -33h-14z" />
    <glyph glyph-name="eth" unicode="&#xf0;" horiz-adv-x="578" 
d="M138 233q0 -31 9 -60t26.5 -51.5t44 -36t61.5 -13.5q40 0 69 17t48 44t27.5 60t8.5 65q0 57 -38 93.5t-104 36.5q-39 0 -67.5 -13.5t-47.5 -35t-28 -49.5t-9 -57zM39 235q0 44 15.5 85.5t45.5 74t74 52t102 19.5q32 0 55 -7.5t39 -15.5q18 -11 32 -23h2q-16 44 -45 78
t-67 59l-145 -65q-17 -6 -24.5 -4t-13.5 15l-4 10q-6 14 -0.5 22t18.5 14l102 45q-22 12 -46 21t-50 17q-31 9 -22 41l6 16q11 31 41 22q45 -12 89.5 -29.5t86.5 -42.5l103 46q17 7 24.5 4t12.5 -14l6 -12q5 -11 0 -19.5t-18 -13.5l-72 -33q63 -53 103.5 -132.5t40.5 -189.5
q0 -51 -14 -102t-44.5 -92t-79 -67t-116.5 -26q-57 0 -101 21t-74 55.5t-46 79t-16 91.5z" />
    <glyph glyph-name="ntilde" unicode="&#xf1;" horiz-adv-x="591" 
d="M171 581q-29 0 -29 32q0 41 26 68t68 27q27 0 45 -10.5t32 -23.5t26.5 -23.5t29.5 -10.5q18 0 27 13.5t10 31.5q2 20 30 20h8q29 0 29 -28q0 -45 -25.5 -72t-68.5 -27q-27 0 -45 10.5t-32 23.5t-27 23.5t-29 10.5q-19 0 -28 -13.5t-10 -31.5q-3 -20 -29 -20h-8zM70 473
q0 33 33 33h28q33 0 33 -33v-45q0 -10 -2 -20q-1 -4 -1 -9h2q7 16 22.5 37t39.5 39t56 30.5t74 12.5q90 0 131.5 -48.5t41.5 -145.5v-291q0 -33 -33 -33h-31q-33 0 -33 33v269q0 27 -3.5 50t-13.5 40t-29 27t-49 10q-37 0 -68 -14.5t-53.5 -39.5t-35 -59.5t-12.5 -73.5v-209
q0 -33 -33 -33h-31q-33 0 -33 33v440z" />
    <glyph glyph-name="ograve" unicode="&#xf2;" horiz-adv-x="619" 
d="M295 580q-14 0 -23 4.5t-17 15.5l-49 67q-13 17 -8.5 28.5t25.5 11.5h30q26 0 39 -23l39 -68q8 -14 4.5 -25t-20.5 -11h-20zM135 254q0 -40 14 -73.5t37.5 -57.5t55 -37.5t67.5 -13.5t67.5 13.5t55.5 37.5t37.5 57.5t13.5 73.5q0 39 -13.5 72t-37.5 57t-55.5 37.5
t-67.5 13.5t-67.5 -13.5t-55 -37.5t-37.5 -57t-14 -72zM37 254q0 57 21.5 105.5t58 84t86 55t106.5 19.5t106.5 -19.5t86.5 -55t58.5 -84t21.5 -105.5q0 -58 -21.5 -106.5t-58.5 -84t-86.5 -55.5t-106.5 -20t-106.5 20t-86 55.5t-58 84t-21.5 106.5z" />
    <glyph glyph-name="oacute" unicode="&#xf3;" horiz-adv-x="619" 
d="M135 254q0 -40 14 -73.5t37.5 -57.5t55 -37.5t67.5 -13.5t67.5 13.5t55.5 37.5t37.5 57.5t13.5 73.5q0 39 -13.5 72t-37.5 57t-55.5 37.5t-67.5 13.5t-67.5 -13.5t-55 -37.5t-37.5 -57t-14 -72zM37 254q0 57 21.5 105.5t58 84t86 55t106.5 19.5t106.5 -19.5t86.5 -55
t58.5 -84t21.5 -105.5q0 -58 -21.5 -106.5t-58.5 -84t-86.5 -55.5t-106.5 -20t-106.5 20t-86 55.5t-58 84t-21.5 106.5zM306 580q-17 0 -23 11t3 26l40 67q13 23 39 23h29q21 0 26 -11.5t-8 -28.5l-49 -67q-16 -20 -40 -20h-17z" />
    <glyph glyph-name="ocircumflex" unicode="&#xf4;" horiz-adv-x="619" 
d="M135 254q0 -40 14 -73.5t37.5 -57.5t55 -37.5t67.5 -13.5t67.5 13.5t55.5 37.5t37.5 57.5t13.5 73.5q0 39 -13.5 72t-37.5 57t-55.5 37.5t-67.5 13.5t-67.5 -13.5t-55 -37.5t-37.5 -57t-14 -72zM37 254q0 57 21.5 105.5t58 84t86 55t106.5 19.5t106.5 -19.5t86.5 -55
t58.5 -84t21.5 -105.5q0 -58 -21.5 -106.5t-58.5 -84t-86.5 -55.5t-106.5 -20t-106.5 20t-86 55.5t-58 84t-21.5 106.5zM213 580q-18 0 -22.5 11.5t6.5 28.5l46 65q15 22 41 22h49q26 0 40 -22l47 -65q11 -17 6.5 -28.5t-21.5 -11.5h-22q-14 0 -20.5 5t-14.5 17l-39 58h-2
l-39 -58q-7 -12 -14 -17t-21 -5h-20z" />
    <glyph glyph-name="otilde" unicode="&#xf5;" horiz-adv-x="619" 
d="M173 581q-29 0 -29 32q0 41 26 68t68 27q27 0 45 -10.5t32 -23.5t26.5 -23.5t29.5 -10.5q18 0 27 13.5t10 31.5q2 20 30 20h8q29 0 29 -28q0 -45 -25.5 -72t-68.5 -27q-27 0 -45 10.5t-32 23.5t-27 23.5t-29 10.5q-19 0 -28 -13.5t-10 -31.5q-3 -20 -29 -20h-8zM135 254
q0 -40 14 -73.5t37.5 -57.5t55 -37.5t67.5 -13.5t67.5 13.5t55.5 37.5t37.5 57.5t13.5 73.5q0 39 -13.5 72t-37.5 57t-55.5 37.5t-67.5 13.5t-67.5 -13.5t-55 -37.5t-37.5 -57t-14 -72zM37 254q0 57 21.5 105.5t58 84t86 55t106.5 19.5t106.5 -19.5t86.5 -55t58.5 -84
t21.5 -105.5q0 -58 -21.5 -106.5t-58.5 -84t-86.5 -55.5t-106.5 -20t-106.5 20t-86 55.5t-58 84t-21.5 106.5z" />
    <glyph glyph-name="odieresis" unicode="&#xf6;" horiz-adv-x="619" 
d="M135 254q0 -40 14 -73.5t37.5 -57.5t55 -37.5t67.5 -13.5t67.5 13.5t55.5 37.5t37.5 57.5t13.5 73.5q0 39 -13.5 72t-37.5 57t-55.5 37.5t-67.5 13.5t-67.5 -13.5t-55 -37.5t-37.5 -57t-14 -72zM37 254q0 57 21.5 105.5t58 84t86 55t106.5 19.5t106.5 -19.5t86.5 -55
t58.5 -84t21.5 -105.5q0 -58 -21.5 -106.5t-58.5 -84t-86.5 -55.5t-106.5 -20t-106.5 20t-86 55.5t-58 84t-21.5 106.5zM219 606q-33 0 -33 33v35q0 33 33 33h14q33 0 33 -33v-35q0 -33 -33 -33h-14zM386 606q-33 0 -33 33v35q0 33 33 33h14q33 0 33 -33v-35q0 -33 -33 -33
h-14z" />
    <glyph glyph-name="divide" unicode="&#xf7;" 
d="M259 102q0 33 33 33h28q33 0 33 -33v-25q0 -33 -33 -33h-28q-33 0 -33 33v25zM87 246q-33 0 -33 33v12q0 33 33 33h439q33 0 33 -33v-12q0 -33 -33 -33h-439zM292 435q-33 0 -33 33v25q0 33 33 33h28q33 0 33 -33v-25q0 -33 -33 -33h-28z" />
    <glyph glyph-name="oslash" unicode="&#xf8;" horiz-adv-x="620" 
d="M235 90q33 -18 75 -18q36 0 67.5 13.5t55.5 37.5t37.5 57.5t13.5 73.5q0 36 -12 67t-34 54zM393 413q-18 10 -39 15.5t-44 5.5q-36 0 -67.5 -13.5t-55 -37.5t-37.5 -57t-14 -72t14 -72t37 -57zM133 49q-45 36 -70 88.5t-25 116.5q0 57 21.5 105.5t58 84t86 55t106.5 19.5
q37 0 71 -8.5t64 -24.5l20 28q19 26 44 10q24 -16 9 -36l-25 -35q42 -35 66 -86t24 -112q0 -58 -21.5 -106.5t-58.5 -84t-86.5 -55.5t-106.5 -20q-35 0 -67 7.5t-60 22.5l-21 -29q-18 -27 -43 -10q-25 18 -9 37z" />
    <glyph glyph-name="ugrave" unicode="&#xf9;" horiz-adv-x="587" 
d="M277 580q-14 0 -23 4.5t-17 15.5l-49 67q-13 17 -8.5 28.5t25.5 11.5h30q26 0 39 -23l39 -68q8 -14 4.5 -25t-20.5 -11h-20zM64 473q0 33 33 33h31q32 0 32 -33v-269q0 -26 3.5 -49t14 -40t29 -27t48.5 -10q39 0 69.5 16t52 42t32.5 60.5t11 72.5v204q0 33 33 33h31
q33 0 33 -33v-440q0 -33 -33 -33h-28q-33 0 -33 33v45v10.5t1 9.5t2 9h-2q-8 -19 -24.5 -40t-40.5 -38.5t-55 -29t-68 -11.5q-86 0 -129 46.5t-43 147.5v291z" />
    <glyph glyph-name="uacute" unicode="&#xfa;" horiz-adv-x="587" 
d="M64 473q0 33 33 33h31q32 0 32 -33v-269q0 -26 3.5 -49t14 -40t29 -27t48.5 -10q39 0 69.5 16t52 42t32.5 60.5t11 72.5v204q0 33 33 33h31q33 0 33 -33v-440q0 -33 -33 -33h-28q-33 0 -33 33v45v10.5t1 9.5t2 9h-2q-8 -19 -24.5 -40t-40.5 -38.5t-55 -29t-68 -11.5
q-86 0 -129 46.5t-43 147.5v291zM286 580q-17 0 -23 11t3 26l40 67q13 23 39 23h29q21 0 26 -11.5t-8 -28.5l-49 -67q-16 -20 -40 -20h-17z" />
    <glyph glyph-name="ucircumflex" unicode="&#xfb;" horiz-adv-x="587" 
d="M64 473q0 33 33 33h31q32 0 32 -33v-269q0 -26 3.5 -49t14 -40t29 -27t48.5 -10q39 0 69.5 16t52 42t32.5 60.5t11 72.5v204q0 33 33 33h31q33 0 33 -33v-440q0 -33 -33 -33h-28q-33 0 -33 33v45v10.5t1 9.5t2 9h-2q-8 -19 -24.5 -40t-40.5 -38.5t-55 -29t-68 -11.5
q-86 0 -129 46.5t-43 147.5v291zM194 580q-18 0 -22.5 11.5t6.5 28.5l46 65q15 22 41 22h49q26 0 40 -22l47 -65q11 -17 6.5 -28.5t-21.5 -11.5h-22q-14 0 -20.5 5t-14.5 17l-39 58h-2l-39 -58q-7 -12 -14 -17t-21 -5h-20z" />
    <glyph glyph-name="udieresis" unicode="&#xfc;" horiz-adv-x="587" 
d="M64 473q0 33 33 33h31q32 0 32 -33v-269q0 -26 3.5 -49t14 -40t29 -27t48.5 -10q39 0 69.5 16t52 42t32.5 60.5t11 72.5v204q0 33 33 33h31q33 0 33 -33v-440q0 -33 -33 -33h-28q-33 0 -33 33v45v10.5t1 9.5t2 9h-2q-8 -19 -24.5 -40t-40.5 -38.5t-55 -29t-68 -11.5
q-86 0 -129 46.5t-43 147.5v291zM200 606q-33 0 -33 33v35q0 33 33 33h14q33 0 33 -33v-35q0 -33 -33 -33h-14zM367 606q-33 0 -33 33v35q0 33 33 33h14q33 0 33 -33v-35q0 -33 -33 -33h-14z" />
    <glyph glyph-name="yacute" unicode="&#xfd;" horiz-adv-x="502" 
d="M249 579q-17 0 -23 11t3 26l40 67q13 23 39 23h29q21 0 26 -11.5t-8 -28.5l-49 -67q-16 -20 -40 -20h-17zM21 -134q6 14 16 17t21 0q8 -3 17.5 -7t22.5 -4q31 0 53 23t34 53l25 58l-196 462q-8 17 -0.5 27.5t25.5 10.5h39q28 0 37 -26l119 -305q3 -10 6.5 -20.5
t5.5 -19.5q3 -11 6 -21h2l5 20q2 9 5 19.5t7 20.5l115 305q9 27 37 27h36q18 0 25.5 -10.5t0.5 -27.5l-223 -557q-23 -60 -66.5 -90.5t-97.5 -30.5q-22 0 -39.5 5.5t-30.5 10.5q-14 6 -17.5 18t2.5 25z" />
    <glyph glyph-name="thorn" unicode="&#xfe;" horiz-adv-x="592" 
d="M166 252q0 -39 10 -72t28.5 -57t45.5 -37.5t60 -13.5q31 0 57.5 13t46 36.5t30.5 57t11 74.5q0 40 -10.5 73.5t-29 57.5t-45 37t-57.5 13q-29 0 -56 -10t-47 -32t-32 -56.5t-12 -83.5zM72 673q0 33 33 33h31q32 0 32 -33v-197q0 -10 -0.5 -17.5t-0.5 -12.5v-12h2
q5 5 15.5 19t29 28.5t47 25.5t68.5 11q51 0 92.5 -20t71 -55t45 -83.5t15.5 -106.5q0 -59 -16.5 -107.5t-46.5 -83.5t-72 -54.5t-93 -19.5q-44 0 -73.5 12.5t-48.5 28.5q-22 18 -35 42h-2q0 -5 1 -12q0 -6 0.5 -14t0.5 -18v-194q0 -33 -32 -33h-31q-33 0 -33 33v840z" />
    <glyph glyph-name="ydieresis" unicode="&#xff;" horiz-adv-x="502" 
d="M163 605q-33 0 -33 33v35q0 33 33 33h14q33 0 33 -33v-35q0 -33 -33 -33h-14zM330 605q-33 0 -33 33v35q0 33 33 33h14q33 0 33 -33v-35q0 -33 -33 -33h-14zM21 -134q6 14 16 17t21 0q8 -3 17.5 -7t22.5 -4q31 0 53 23t34 53l25 58l-196 462q-8 17 -0.5 27.5t25.5 10.5
h39q28 0 37 -26l119 -305q3 -10 6.5 -20.5t5.5 -19.5q3 -11 6 -21h2l5 20q2 9 5 19.5t7 20.5l115 305q9 27 37 27h36q18 0 25.5 -10.5t0.5 -27.5l-223 -557q-23 -60 -66.5 -90.5t-97.5 -30.5q-22 0 -39.5 5.5t-30.5 10.5q-14 6 -17.5 18t2.5 25z" />
    <glyph glyph-name="OE" unicode="&#x152;" horiz-adv-x="946" 
d="M146 354q0 -59 19.5 -109.5t54 -87.5t83 -58.5t107.5 -21.5q15 0 27.5 1t22.5 3q11 2 21 4v537q-10 1 -21 3q-10 2 -22.5 3t-27.5 1q-59 0 -107.5 -21.5t-83 -58.5t-54 -87t-19.5 -108zM44 354q0 76 28 142t77 114.5t116 76.5t145 28q36 0 66 -4.5t56 -4.5h326
q33 0 33 -33v-20q0 -33 -33 -33h-279v-221h220q33 0 33 -33v-20q0 -33 -33 -33h-220v-227h296q33 0 33 -33v-20q0 -33 -33 -33h-342q-26 0 -56.5 -4.5t-66.5 -4.5q-78 0 -145 28t-116 77t-77 115t-28 143z" />
    <glyph glyph-name="oe" unicode="&#x153;" horiz-adv-x="990" 
d="M136 252q0 -41 14 -74.5t37.5 -57t55 -36t66.5 -12.5t66.5 12.5t55.5 36.5t38 58t14 76q0 41 -14 74t-38 56.5t-55.5 36t-66.5 12.5t-66.5 -13t-55 -37t-37.5 -57.5t-14 -74.5zM856 307q-1 32 -11 57t-26.5 42t-38 26t-45.5 9q-57 0 -97.5 -35.5t-51.5 -98.5h270zM37 252
q0 60 21.5 109t58 84t85.5 54t104 19q76 0 131.5 -32.5t88.5 -87.5h2q30 57 82.5 88.5t125.5 31.5q52 0 93 -18t69 -50t42.5 -76t14.5 -97q0 -14 -10 -24t-25 -10h-337q3 -42 18 -74t39 -53.5t54 -32.5t63 -11q42 0 73 13.5t49 26.5q30 16 44 -11l9 -15q16 -29 -10 -44
q-11 -8 -27.5 -17.5t-38.5 -17.5t-48.5 -13.5t-56.5 -5.5q-79 0 -134.5 33.5t-86.5 89.5h-2q-33 -57 -88.5 -90t-132.5 -33q-56 0 -105 18.5t-85.5 53t-58 83.5t-21.5 109z" />
    <glyph glyph-name="Scaron" unicode="&#x160;" horiz-adv-x="537" 
d="M58 61q-10 9 -12.5 20t8.5 26l17 24q18 23 45 6q9 -7 24 -16.5t34.5 -18.5t43.5 -15.5t52 -6.5q57 0 90.5 27.5t33.5 73.5q0 39 -25 64t-63 44.5t-82 38t-82 43t-63 60.5t-25 91q0 45 17.5 81t48.5 61.5t73 39.5t90 14q31 0 59 -5.5t51 -13.5t40 -17.5t27 -17.5
q24 -17 10 -45l-14 -25q-9 -16 -20.5 -16.5t-24.5 7.5q-20 12 -52.5 26.5t-77.5 14.5q-55 0 -91 -26.5t-36 -72.5q0 -38 25 -62t63 -42.5t82 -36t82 -42.5t63 -61.5t25 -93.5q0 -42 -15 -78.5t-44 -63.5t-70.5 -43t-94.5 -16q-38 0 -71.5 7.5t-60.5 19t-47.5 24t-32.5 22.5z
M245 755q-26 0 -41 21l-46 66q-11 17 -6.5 28.5t22.5 11.5h20q14 0 21 -5.5t14 -16.5l39 -59h2l39 59q8 11 14.5 16.5t20.5 5.5h21q18 0 22.5 -11.5t-6.5 -28.5l-47 -66q-14 -21 -40 -21h-49z" />
    <glyph glyph-name="scaron" unicode="&#x161;" horiz-adv-x="439" 
d="M50 43q-13 8 -14 20t7 25l10 14q10 13 20.5 14t25.5 -7q17 -11 48 -26t76 -15q38 0 62 17.5t24 49.5q0 25 -19.5 40t-48.5 27.5t-62.5 24t-62.5 30t-48.5 45.5t-19.5 70q0 36 14.5 63.5t39.5 45.5t58.5 27.5t70.5 9.5q53 0 87.5 -14t52.5 -25q14 -7 16.5 -18.5
t-5.5 -25.5l-9 -15q-14 -25 -44 -11q-16 9 -41.5 19t-61.5 10t-60.5 -16t-24.5 -48q0 -25 19.5 -40.5t48.5 -27.5t62.5 -24t62.5 -29.5t48.5 -45t19.5 -70.5q0 -32 -13 -59.5t-37 -47.5t-57.5 -31t-74.5 -11q-32 0 -58.5 5.5t-47.5 14t-37.5 18t-26.5 17.5zM196 580
q-26 0 -41 21l-46 66q-11 17 -6.5 28.5t22.5 11.5h20q14 0 21 -5.5t14 -16.5l39 -59h2l39 59q8 11 14.5 16.5t20.5 5.5h21q18 0 22.5 -11.5t-6.5 -28.5l-47 -66q-14 -21 -40 -21h-49z" />
    <glyph glyph-name="Ydieresis" unicode="&#x178;" horiz-adv-x="567" 
d="M190 781q-33 0 -33 33v35q0 33 33 33h14q33 0 33 -33v-35q0 -33 -33 -33h-14zM357 781q-33 0 -33 33v35q0 33 33 33h14q33 0 33 -33v-35q0 -33 -33 -33h-14zM234 299l-214 368q-10 17 -3.5 28t26.5 11h40q26 0 38 -23l119 -209q8 -15 15.5 -31t13.5 -29q7 -15 14 -29h2
q6 14 13 29q6 13 14 29t16 31l118 209q11 23 38 23h40q20 0 26.5 -11t-3.5 -28l-214 -368v-266q0 -33 -33 -33h-33q-33 0 -33 33v266z" />
    <glyph glyph-name="Zcaron" unicode="&#x17d;" horiz-adv-x="588" 
d="M32 43q0 13 3 22t11 20l326 471q10 15 19.5 27t16.5 20q8 10 15 18v2q-6 -1 -14 -2q-7 -1 -16.5 -1h-22.5h-287q-33 0 -33 33v20q0 33 33 33h430q33 0 33 -32v-10q0 -22 -13 -42l-327 -472q-11 -15 -20 -27t-16 -20q-8 -10 -15 -17v-2q6 0 14 1q7 0 16.5 0.5t22.5 0.5
h309q33 0 33 -33v-20q0 -33 -33 -33h-452q-33 0 -33 33v10zM280 755q-26 0 -41 21l-46 66q-11 17 -6.5 28.5t22.5 11.5h20q14 0 21 -5.5t14 -16.5l39 -59h2l39 59q8 11 14.5 16.5t20.5 5.5h21q18 0 22.5 -11.5t-6.5 -28.5l-47 -66q-14 -21 -40 -21h-49z" />
    <glyph glyph-name="zcaron" unicode="&#x17e;" horiz-adv-x="500" 
d="M31 36q0 13 3 20.5t11 17.5l241 302q8 10 15.5 19t13.5 15l13 13v2q-5 -1 -12 -1q-6 -1 -15.5 -1h-21.5h-204q-33 0 -33 33v17q0 33 33 33h351q33 0 33 -28v-8q0 -13 -3 -20.5t-11 -17.5l-241 -303q-8 -10 -15.5 -18.5t-13.5 -14.5q-7 -7 -14 -13v-2q5 0 12 1q6 0 15 0.5
t22 0.5h224q33 0 33 -32v-18q0 -33 -33 -33h-370q-33 0 -33 28v8zM223 580q-26 0 -41 21l-46 66q-11 17 -6.5 28.5t22.5 11.5h20q14 0 21 -5.5t14 -16.5l39 -59h2l39 59q8 11 14.5 16.5t20.5 5.5h21q18 0 22.5 -11.5t-6.5 -28.5l-47 -66q-14 -21 -40 -21h-49z" />
    <glyph glyph-name="florin" unicode="&#x192;" horiz-adv-x="376" 
d="M-30 -25q6 -1 14 -1.5t20 -0.5q14 0 32 3.5t35.5 15t30.5 33.5t16 59l23 266h-49q-33 0 -33 32v13q0 33 33 33h56l9 102q6 63 30 100t55.5 56.5t65 25.5t57.5 6q14 0 28 -1t25 -2q31 -3 31 -35v-18q0 -35 -26 -32q-12 2 -26 3t-27 1q-14 0 -32.5 -3.5t-36 -15
t-30.5 -33.5t-16 -59l-10 -95h84q33 0 33 -33v-13q0 -32 -32 -32h-92l-23 -274q-6 -63 -30 -100t-55.5 -56.5t-64.5 -25t-57 -5.5q-11 0 -21 0.5t-18 1.5q-31 3 -31 35v18q0 17 9 25t23 6z" />
    <glyph glyph-name="circumflex" unicode="&#x2c6;" horiz-adv-x="499" 
d="M154 755q-18 0 -22.5 11.5t6.5 28.5l46 65q15 22 41 22h49q26 0 40 -22l47 -65q11 -17 6.5 -28.5t-21.5 -11.5h-22q-14 0 -20.5 5t-14.5 17l-39 58h-2l-39 -58q-7 -12 -14 -17t-21 -5h-20z" />
    <glyph glyph-name="tilde" unicode="&#x2dc;" horiz-adv-x="499" 
d="M113 756q-29 0 -29 32q0 41 26 68t68 27q27 0 45 -10.5t32 -23.5t26.5 -23.5t29.5 -10.5q18 0 27 13.5t10 31.5q2 20 30 20h8q29 0 29 -28q0 -45 -25.5 -72t-68.5 -27q-27 0 -45 10.5t-32 23.5t-27 23.5t-29 10.5q-19 0 -28 -13.5t-10 -31.5q-3 -20 -29 -20h-8z" />
    <glyph glyph-name="endash" unicode="&#x2013;" horiz-adv-x="655" 
d="M97 246q-32 0 -32 33v12q0 33 32 33h461q33 0 33 -33v-12q0 -33 -33 -33h-461z" />
    <glyph glyph-name="emdash" unicode="&#x2014;" horiz-adv-x="855" 
d="M97 246q-32 0 -32 33v12q0 33 32 33h661q33 0 33 -33v-12q0 -33 -33 -33h-661z" />
    <glyph glyph-name="quoteleft" unicode="&#x2018;" horiz-adv-x="209" 
d="M73 499q-18 0 -25.5 10.5t-1.5 27.5l50 154q9 26 37 26h9q35 0 27 -36l-36 -152q-6 -30 -35 -30h-25z" />
    <glyph glyph-name="quoteright" unicode="&#x2019;" horiz-adv-x="207" 
d="M75 499q-37 0 -27 37l35 152q6 29 36 29h24q18 0 25.5 -10t1.5 -27l-50 -154q-9 -27 -37 -27h-8z" />
    <glyph glyph-name="quotesinglbase" unicode="&#x201a;" horiz-adv-x="226" 
d="M74 76q6 29 36 29h24q18 0 25.5 -10t1.5 -27l-50 -154q-9 -27 -37 -27h-8q-18 0 -24.5 9.5t-3.5 26.5z" />
    <glyph glyph-name="quotedblleft" unicode="&#x201c;" horiz-adv-x="356" 
d="M73 499q-18 0 -25.5 10.5t-1.5 27.5l50 154q9 26 37 26h9q35 0 27 -36l-35 -152q-6 -30 -36 -30h-25zM220 499q-18 0 -25.5 10.5t-1.5 27.5l50 154q9 26 37 26h9q35 0 27 -36l-35 -152q-8 -30 -36 -30h-25z" />
    <glyph glyph-name="quotedblright" unicode="&#x201d;" horiz-adv-x="354" 
d="M75 499q-37 0 -27 37l35 152q6 29 36 29h25q18 0 25.5 -10t1.5 -27l-50 -154q-9 -27 -38 -27h-8zM222 499q-36 0 -28 37l36 152q6 29 36 29h25q38 0 27 -37l-50 -154q-5 -14 -14 -20.5t-24 -6.5h-8z" />
    <glyph glyph-name="quotedblbase" unicode="&#x201e;" horiz-adv-x="373" 
d="M74 76q6 29 36 29h25q18 0 25 -10t2 -27l-50 -154q-5 -14 -14 -20.5t-24 -6.5h-8q-18 0 -25 9.5t-3 26.5zM221 76q6 29 35 29h25q19 0 26 -10t1 -27l-49 -154q-11 -27 -38 -27h-9q-17 0 -24 9.5t-3 26.5z" />
    <glyph glyph-name="dagger" unicode="&#x2020;" horiz-adv-x="423" 
d="M164 429h-88q-33 0 -33 32v12q0 33 33 33h88v167q0 33 33 33h27q33 0 33 -33v-167h91q33 0 33 -33v-12q0 -32 -33 -32h-91v-446q0 -33 -33 -33h-27q-33 0 -33 33v446z" />
    <glyph glyph-name="daggerdbl" unicode="&#x2021;" horiz-adv-x="435" 
d="M169 171h-87q-33 0 -33 33v12q0 33 33 33h87v180h-87q-33 0 -33 32v12q0 33 33 33h87v167q0 33 33 33h28q33 0 33 -33v-167h91q33 0 33 -33v-12q0 -32 -33 -32h-91v-180h91q33 0 33 -33v-12q0 -33 -33 -33h-91v-188q0 -33 -33 -33h-28q-33 0 -33 33v188z" />
    <glyph glyph-name="bullet" unicode="&#x2022;" horiz-adv-x="411" 
d="M205 136q-32 0 -60 12t-49 33t-33 49.5t-12 60.5t12 60.5t33 49.5t49 33t60 12t60.5 -12t49.5 -33t33 -49.5t12 -60.5t-12 -60.5t-33 -49.5t-49.5 -33t-60.5 -12z" />
    <glyph glyph-name="ellipsis" unicode="&#x2026;" horiz-adv-x="745" 
d="M62 72q0 33 33 33h36q33 0 33 -33v-39q0 -33 -33 -33h-36q-33 0 -33 33v39zM322 72q0 33 32 33h36q33 0 33 -33v-39q0 -33 -33 -33h-36q-32 0 -32 33v39zM581 72q0 33 33 33h36q33 0 33 -33v-39q0 -33 -33 -33h-36q-33 0 -33 33v39z" />
    <glyph glyph-name="perthousand" unicode="&#x2030;" horiz-adv-x="1100" 
d="M488 136q0 -32 21 -53t52 -21q32 0 53 21t21 53q0 31 -21 53t-53 22q-31 0 -52 -22t-21 -53zM842 136q0 -32 21 -53t53 -21q31 0 52.5 21t21.5 53q0 31 -21.5 53t-52.5 22q-32 0 -53 -22t-21 -53zM410 136q0 30 12 57t32 47.5t47.5 32t59.5 11.5q31 0 59 -11.5t48.5 -32
t32.5 -47.5t12 -57q0 -31 -12 -58t-32.5 -47t-48.5 -31.5t-59 -11.5q-32 0 -59.5 11.5t-47.5 31.5t-32 47t-12 58zM764 136q0 30 12 57t32.5 47.5t48 32t59.5 11.5q31 0 58.5 -11.5t48.5 -32t33 -47.5t12 -57q0 -31 -12 -58t-33 -47t-48.5 -31.5t-58.5 -11.5
q-32 0 -59.5 11.5t-48 31.5t-32.5 47t-12 58zM199 496q31 0 52.5 21t21.5 53q0 31 -21.5 53t-52.5 22q-32 0 -53 -22t-21 -53q0 -32 21 -53t53 -21zM588 687q15 19 40 19h18q21 0 27 -11.5t-7 -28.5l-494 -646q-8 -11 -17 -15.5t-23 -4.5h-18q-21 0 -27 11.5t7 28.5z
M199 422q-32 0 -59.5 11.5t-48 31.5t-32.5 47t-12 58q0 30 12 57t32.5 47.5t48 32t59.5 11.5q31 0 58.5 -11.5t48.5 -32t33 -47.5t12 -57q0 -31 -12 -58t-33 -47t-48.5 -31.5t-58.5 -11.5z" />
    <glyph glyph-name="guilsinglleft" unicode="&#x2039;" horiz-adv-x="321" 
d="M50 259q-20 23 0 46l129 164q16 19 41 19h20q21 0 27 -11.5t-8 -28.5l-131 -166l131 -165q14 -17 9.5 -28.5t-24.5 -11.5h-24q-25 0 -41 19z" />
    <glyph glyph-name="guilsinglright" unicode="&#x203a;" horiz-adv-x="321" 
d="M81 77q-21 0 -26.5 11.5t7.5 28.5l131 165l-131 166q-14 17 -9 28.5t25 11.5h24q24 0 40 -19l130 -164q20 -23 0 -46l-130 -163q-16 -19 -40 -19h-21z" />
    <glyph glyph-name="Euro" unicode="&#x20ac;" horiz-adv-x="599" 
d="M70 258q-17 0 -23.5 8t-6.5 24t6.5 23.5t23.5 7.5h25q-2 14 -2 34.5t2 37.5h-24q-17 0 -24 8t-7 24t7 24t24 8h35q15 57 47 105t76 82.5t99 54t117 19.5q20 0 37.5 -1.5t29.5 -3.5q35 -6 25 -40l-7 -27q-7 -30 -34 -25q-10 2 -24 3.5t-29 1.5q-85 0 -145.5 -46
t-85.5 -123h244q36 0 30 -33q-3 -17 -11.5 -24t-25.5 -7h-252q-5 -35 0 -72h233q37 0 30 -33q-3 -17 -11 -23.5t-25 -6.5h-210q12 -39 34 -71.5t52 -56t67 -36t79 -12.5q36 0 59 5q33 6 39 -24l6 -27q3 -15 -3 -25.5t-22 -13.5q-14 -3 -34.5 -6t-45.5 -3q-64 0 -120 20
t-100 55.5t-75 85t-45 109.5h-35z" />
    <glyph glyph-name="trademark" unicode="&#x2122;" horiz-adv-x="965" 
d="M225 266q-33 0 -33 33v340h-119q-33 0 -33 31v5q0 31 33 31h314q33 0 33 -31v-5q0 -31 -33 -31h-119v-340q0 -33 -33 -33h-10zM485 675q2 31 33 31h11q28 0 39 -25l92 -205q3 -7 5.5 -14.5l4.5 -13.5l4 -14h2q1 7 4 14q3 13 10 28l92 205q11 25 39 25h11q31 0 33 -31
l30 -375q2 -34 -32 -34h-10q-30 0 -33 31l-18 232q-1 5 -0.5 10.5t0.5 10.5t1 9h-2l-85 -186q-10 -26 -38 -26h-6q-28 0 -38 26l-85 186h-2q1 -4 1 -9v-21l-19 -232q-2 -31 -33 -31h-10q-34 0 -32 34z" />
    <glyph glyph-name="glyph217" horiz-adv-x="0" 
 />
    </font>
</defs>
</svg>
